<?xml version="1.0" encoding="UTF-8" standalone="no"?>
<svg xmlns:rdf="http://www.w3.org/1999/02/22-rdf-syntax-ns#" xmlns="http://www.w3.org/2000/svg" height="868.9" viewBox="0 0 634.85956 868.89843" width="634.86" version="1.1" xmlns:cc="http://creativecommons.org/ns#" xmlns:dc="http://purl.org/dc/elements/1.1/">
<g transform="scale(4)">
<rect height="10" width="10" y="42.289" x="62.328" fill="#ccc"/>
<path d="m158.71 137.87a79.357 79.357 0 0 1 -79.353 79.35 79.357 79.357 0 0 1 -79.357 -79.35 79.357 79.357 0 0 1 79.357 -79.36 79.357 79.357 0 0 1 79.353 79.36z" fill="#802a00"/>
<path d="m77.328 0-21 21v4l12 12h5v-5l-9-9 15-15 15 15-9 9v5h5l12-12v-4l-21-21h-4zm-16 41v14h36v-14h-36zm4 2h3v9h-3v-9z" fill="#666"/>
<path d="m80.123 58.549c-8.025 5.705-28.948 18.342-53.641 20.269a79.357 79.357 0 0 0 -8.0645 8.248c21.056-0.05169 44.053-7.5311 59.842-18.271 3.9384-2.755 9.054-5.9263 14.994-8.9863a79.357 79.357 0 0 0 -13.131 -1.26zm40.723 11.787c-14.505 3.3439-28.612 9.7002-39.412 17.281-8.6927 6.4611-41.049 26.886-75.439 20.086a79.357 79.357 0 0 0 -2.7676 7.957c24.372 4.88 55.316-3.46 75.028-16.865 10.928-7.645 30.85-18.485 52.63-21.24a79.357 79.357 0 0 0 -10.045 -7.2188zm19.807 27.473c-20.78 0.311-43.503 8.771-59.226 19.811-9.19 6.83-44.825 29.26-81.354 18.64a79.357 79.357 0 0 0 -0.08 1.61 79.357 79.357 0 0 0 0.38672 7.1582c24.769 6.16 57.387-2.3 77.873-16.24 14.528-10.16 44.95-25.99 74.5-20.92a79.357 79.357 0 0 0 -4.8652 -9.8027c-2.3797-0.19899-4.7952-0.29066-7.2441-0.25391zm0 30c-20.768 0.31171-43.496 8.7722-59.219 19.809-8.7035 6.4692-41.13 26.937-75.568 20.061a79.357 79.357 0 0 0 4.3984 9.0274c23.061 2.2271 50.14-5.7633 67.996-17.91 15.496-10.84 49.068-28.135 80.391-19.633a79.357 79.357 0 0 0 0.0645 -1.2949 79.357 79.357 0 0 0 -0.49804 -8.0742c-5.5355-1.4562-11.463-2.076-17.564-1.9844zm0 30c-20.768 0.31171-43.496 8.7722-59.219 19.809-6.7637 5.0274-27.86 18.495-53.088 21.029a79.357 79.357 0 0 0 9.1328 6.5137c15.036-2.8858 29.689-8.8196 40.781-16.365 14.531-10.165 44.958-26.005 74.52-20.928a79.357 79.357 0 0 0 2.9355 -8.6797c-4.8053-1.0268-9.8726-1.4568-15.062-1.3789zm0 30c-20.768 0.31171-43.496 8.7722-59.219 19.809-2.6448 1.9658-7.4975 5.2272-13.914 8.6191a79.357 79.357 0 0 0 11.838 0.98828 79.357 79.357 0 0 0 1.3184 -0.0469c11.427-7.5723 30.355-17.291 50.936-19.719a79.357 79.357 0 0 0 9.3379 -9.6484c-0.0994 0.001-0.19736-0.003-0.29688-0.002z" fill="#ffa77c"/>
</g>
</svg>
