<?xml version="1.0" encoding="UTF-8" standalone="no"?>
<svg xmlns:rdf="http://www.w3.org/1999/02/22-rdf-syntax-ns#" xmlns="http://www.w3.org/2000/svg" height="868.9" width="634.86" version="1.1" xmlns:cc="http://creativecommons.org/ns#" xmlns:dc="http://purl.org/dc/elements/1.1/" viewBox="0 0 634.857 868.898">
<g transform="matrix(4 0 0 4 9.3109 4)">
<rect height="10" width="10" y="41.289" x="60" fill="#ccc"/>
<path d="m156.39 136.87a79.357 79.357 0 0 1 -79.361 79.35 79.357 79.357 0 0 1 -79.357 -79.35 79.357 79.357 0 0 1 79.357 -79.36 79.357 79.357 0 0 1 79.361 79.36z" fill="#008080"/>
<path fill="#666" d="m75-1-21 21v4l12 12h5v-5l-9-9 15-15 15 15-9 9v5h5l12-12v-4l-21-21h-4zm-16 41v14h36v-14h-36zm4 2h3v9h-3v-9z"/>
<path d="m19.246 96.033a71.051 70.341 0 0 0 -13.268 40.837 71.051 70.341 0 0 0 71.051 70.34 71.051 70.341 0 0 0 41.681 -13.49 74.676 73.929 0 0 1 -31.681 7.08 74.676 73.929 0 0 1 -74.675 -73.93 74.676 73.929 0 0 1 6.892 -30.837z" fill="#7cffff"/>
</g>
</svg>
