<?xml version="1.0" encoding="UTF-8" standalone="no"?>
<svg xmlns:rdf="http://www.w3.org/1999/02/22-rdf-syntax-ns#" xmlns="http://www.w3.org/2000/svg" height="896.31pt" width="439.98pt" version="1.1" xmlns:cc="http://creativecommons.org/ns#" xmlns:dc="http://purl.org/dc/elements/1.1/" viewBox="0 0 439.97873 896.30865">
<path d="m222.94 0.0004745c-2.548-0.01236-5.1722 0.21656-7.8609 0.70781-39.78 1.8-54.96 53.43-28.2 79.95-28.92 4.83-8.6709 45.429-15.511 65.019 37.182-6.7832 56.016-6.4735 97.233-0.0563-6.93-19.53 13.2-60.043-15.6-64.963 29.42-26.352 8.16-80.471-30.06-80.657zm-4.3266 10.702c20.438-0.55589 41.043 15.083 37.448 37.256 3 33.84-48.994 38.701-67.594 18.661-10.92-18.81-4.4091-48.813 18.961-53.883 3.6187-1.275 7.3995-1.9314 11.184-2.0344z" fill="#808080"/>
<path d="m212.5 161.5c-56.81-0.07-108.31 34.39-141.86 78.86-30.578 38.13-46.589 86.98-45.869 135.93 0.76964 75.512 27.244 148.24 60.698 214.87 40.997 81.314 81.951 162.66 123.23 243.82 3.2197 10.659 18.349 10.247 21.371-0.36225 43.85-83.187 86.196-167.21 128.36-251.28 25.65-51.552 45.52-106.71 54.063-163.91 9.2876-67.21-6.0276-140.37-52.545-191.15-34.495-38.783-83.64-68.027-136.54-66.705-3.637-0.11418-7.2763-0.12531-10.915-0.0839z" fill="#6cf5ff"/>
<path d="m273.09 173.76c-18.14-0.04-35.64 1.98-58.88 6.22-108.3 31.58-199.76 126.87-212.58 241.02-12.83 143.13 52.534 276.37 115.76 400.01 52.72 99.11 106.95 197.49 154.5 299.19 7.8 1.5 8.85-7.9 12.22-12.7 62.96-133.64 139.24-260.58 201.41-394.64 37.35-88.65 73.01-182.44 62.63-280.54-5.44-119.17-101.17-219.6-212.4-252.41-25.76-4.01-44.52-6.11-62.66-6.15zm4.17 37.63c65 0.63 125.64 34.23 167.97 83.73-0.49 0.28-0.98 0.57-1.46 0.89-16.73 11.04-13.11 30.34 5.02 26.79 2.36-0.46 9.14-1.29 15.07-1.84 0.26-0.03 0.52-0.06 0.78-0.08 3.24 4.89 6.3 9.88 9.19 14.97-5.95 1.21-12.15 2.46-17.44 3.5-9.42 1.84-18.56 4.05-20.31 4.9-18.2 8.81-14.04 24.9 5.4 20.91 3.87-0.79 14.38-2.75 23.36-4.34 7.18-1.27 15.01-2.78 19.73-3.79 2.25 5.02 4.33 10.1 6.23 15.24-0.5-0.04-1.04-0.06-1.65-0.04-5.66 0.12-16.35 2.48-40.99 8.25-24.84 5.82-32.88 10.87-30.78 19.37 2 8.11 16.14 7.66 55.33-1.76 10.76-2.59 18.79-6.44 23.16-10.57 2.56 8.7 4.62 17.52 6.12 26.43 20.88 92.77-12.38 184.42-45.53 269.77-58.39 117.23-120.3 232.69-179.1 349.58-1.35 0.2-4.12 0.6-5.47 0.7-14.57-29.6-29.37-59.01-44.3-88.4 22.48-7.12 35.85-17.49 27.48-21.68-0.85-0.43-1.59-0.69-2.64-0.71-2.3-0.06-6.09 1.07-15.88 4.23-3.67 1.18-10.25 2.94-16.03 4.32-14.67-28.78-29.44-57.5-44.26-86.2-5.22-22.12-3.87-26.64 6.07-36.17 3.14-3 4.44-4.01 23.24-17.93 5.69-4.21 15.19-11.6 21.1-16.42 5.92-4.82 14.68-11.59 19.47-15.06 20.11-14.54 32.35-33.06 28.05-42.42-0.98-2.12-2.39-3.25-4.71-3.2-4.41 0.07-12.09 4.4-26.27 14.1-6.07 4.15-15.45 10.47-20.85 14.04-5.39 3.57-15.01 10.34-21.37 15.04-6.36 4.71-19.24 13.56-28.61 19.67-10.21 6.67-17.71 11.67-23.14 15.99-17.92-34.73-35.81-69.49-53.49-104.34-39.525-96.68-74.254-205.05-40.354-308.66 30.113-78.12 95.444-150.64 181.05-164.82 13.71-2.84 27.35-4.12 40.81-3.99zm32.11 12.51c-4.94-0.04-8.91 0.65-10.46 2.21-4.83 4.85-3.14 9.69 6.8 19.43 4.6 4.51 12.64 13.63 22.88 25.92 5.36 6.45 19.18 26.22 28.14 40.27 3.73 5.85 9.55 13.95 12.93 18s8.36 10.45 11.06 14.22c15.91 22.24 30.13 2.68 17.19-23.63-17.57-35.68-51.71-85.18-62.6-90.75-6.83-3.49-17.72-5.6-25.94-5.67zm-24.14 31.94c-7.62 0.42-5.34 22.21 7.43 46.54 4.05 7.72 10.31 19.62 13.89 26.45 3.59 6.83 8.96 16.52 11.94 21.53 18.85 31.8 12.07 42.52-53.96 85.25-17.2 11.13-20.77 15.59-21.12 26.38-0.48 15.16 3.95 17.02 16.39 6.86 2.76-2.25 8.96-6.77 13.79-10.03 4.82-3.26 15.22-10.65 23.11-16.43 34.24-25.11 44.69-32.06 56.84-37.81 17.49-8.27 23.61-15.98 21.27-26.78-1.25-5.74-24.73-43.47-33.94-54.53-3.93-4.72-10.74-13.96-15.14-20.53-10.93-16.34-25.72-35.8-31.78-41.81-3.67-3.65-6.59-5.21-8.72-5.09zm188.34 160.98c-16.62 0.17-52.62 7.85-60.54 14.08-13.44 10.58-5.79 21.2 10.79 15 9.73-3.64 13.28-4.43 29.55-6.52 27.43-3.54 39.64-12.84 28.03-21.36-1.19-0.87-3.99-1.23-7.83-1.2zm-98.1 1.54c-2.87-0.04-6.62 1.87-11.9 5.82-3.35 2.51-9.36 6.83-13.37 9.61s-12.58 9.14-19.05 14.14c-6.47 4.99-18.62 13.4-26.99 18.69-35.42 22.36-59.83 42.96-62.09 52.38-1.88 7.85-1.21 9.29 20.71 44.58 13.65 21.97 20.6 33.84 23.08 39.44 1.95 4.41 5.02 10.03 6.82 12.49s4.42 6.18 5.81 8.26c9.01 13.45 16.72 9.91 24.46-11.23 3.02-8.24 1.55-17.44-4.71-29.36-10.43-19.86-20.77-46.1-21.13-53.59-0.6-12.58 4.87-18.98 29.45-34.48 39.86-25.14 47.08-32.52 53.28-54.5 3.26-11.54 3.43-14.68 0.99-18.65-1.45-2.36-3.14-3.57-5.36-3.6zm88.21 38.35c-2.71 0.05-6.6 0.58-12.73 1.61-15.82 2.64-17.8 2.85-26.44 2.81-9.74-0.03-12.06 0.71-18.27 5.81-19.33 15.91-16.77 29.47 4.62 24.39 5.69-1.35 11.53-2.19 16.12-2.33 31.86-0.91 59.23-20.98 42.39-31.07-1.44-0.87-2.98-1.28-5.69-1.22zm-13.71 42.1c-0.37-0.01-0.74-0.01-1.13 0-3.99 0.14-9.04 1.5-15.61 4.13-9.01 3.62-13.11 4.45-24.73 5.01-14.58 0.7-24.25 6.38-27.79 16.32-4.23 11.87 10.91 14.79 38.75 7.47 5.79-1.52 13.54-3.23 17.23-3.79 22.74-3.44 33.4-18.15 19.75-27.25-1.78-1.19-3.89-1.82-6.47-1.89zm-16.31 48.59c-1.46 0.01-3.24 0.1-5.44 0.25-12.89 0.85-16.25 1.44-27.34 4.87-3.03 0.93-9.43 2.64-14.21 3.79-28.92 6.96-31.36 26.79-2.54 20.66 5.72-1.21 15.13-2.81 20.91-3.54 30.39-3.84 46.08-13.98 36.46-23.55-1.87-1.86-3.45-2.51-7.84-2.48zm-206.87 0.43c-5.54 0.2-9.89 8.37-14.25 26.04-3.07 12.48-2.86 13.64 5.61 30.59 23.15 46.32 24.57 59.26 7.8 71.31-2.59 1.86-9.13 6.56-14.56 10.45-5.42 3.9-13.03 9.54-16.9 12.54s-11.16 8.52-16.2 12.28c-16.17 12.05-22.33 20.68-26.16 36.6-3.75 15.64 13.85 8.31 54.86-22.84 16.98-12.89 25.21-18.36 52.25-34.67 36.24-21.85 37.05-23.28 26.87-46.99-1.89-4.4-4.81-11.98-6.48-16.85-3.13-9.13-5.92-14.14-12.51-22.51-2.04-2.59-5.92-8.7-8.61-13.58-11.08-20.07-23.02-38.23-26.75-40.69-1.77-1.16-3.41-1.73-4.97-1.68zm192.39 42.66c-1.31 0.02-2.93 0.25-5.12 0.67-2.94 0.56-8.71 1.65-12.83 2.44-4.12 0.78-13.08 1.9-19.91 2.48-13.86 1.17-16.85 2.06-22.77 6.74-14.18 11.23-9.04 24.72 7.51 19.76 10.13-3.04 14.37-3.76 21.73-3.73 23.66 0.12 48.32-17.73 36.65-26.52-1.73-1.3-3.07-1.87-5.26-1.84zm-21.96 40.74c-1.44 0.03-3.12 0.14-5.12 0.33-4 0.37-11.65 0.93-17.01 1.26-30.87 1.87-55.02 22.28-36.47 30.82 8.47 3.9 51.58-3.19 61.1-10.04 10.1-7.27 12.38-14.8 6.06-20.04-2.09-1.74-4.24-2.41-8.56-2.33zm-17.09 43.24c-5.47 0.07-12.68 1.13-21.52 3.18-5.59 1.3-13.26 2.91-17.05 3.58-21.69 3.82-34.82 16.78-26.24 25.89 2.2 2.34 5.44 2.6 12.89 1.05 3.74-0.78 10.57-1.83 15.18-2.33 28.09-3.06 32.57-3.99 40.37-8.37 9.99-5.61 13.15-14.23 7.41-20.21-1.85-1.92-5.57-2.85-11.04-2.79zm-21 48.32c-2.48-0.01-5.93 0.19-10.93 0.56-5.81 0.44-15.11 0.93-20.68 1.11-11.58 0.38-13.26 0.69-18.16 3.41-14.75 8.18-12.56 20.64 3.3 18.88 3.37-0.37 11.44-1.16 17.94-1.75 26.76-2.42 43.58-11.97 35.52-20.16-1.41-1.43-2.85-2.04-6.99-2.05zm-14.48 36.75c-2.58-0.04-6.36 0.46-12.24 1.44-6.34 1.05-14.35 2.36-17.78 2.9-24.58 3.86-37.01 11.34-33.08 19.89 2.09 4.54 5.34 5 18.38 2.66 4.89-0.88 12.94-1.93 17.9-2.33 21.75-1.75 38.21-12.55 32.74-21.47-1.26-2.05-2.6-3.03-5.92-3.09zm-17.17 36.77c-2.08 0.08-5.86 1.15-14.81 3.63-4 1.11-10.62 2.52-14.69 3.14-24.7 3.77-40.52 13.37-34.52 20.96 3.21 4.06 29.96 0.06 54.31-8.13 12.72-4.28 19.38-13.52 13.14-18.22-1.22-0.92-1.81-1.45-3.43-1.38zm-20.93 41.27c-0.4-0.01-0.81-0.01-1.25 0-4.48 0.15-11.12 1.63-20.79 4.51-5.82 1.73-14.68 4.18-19.69 5.44-32.08 8.04-37.92 28.2-6.9 23.85 36.18-5.09 63.71-21.17 54.34-31.76-1.13-1.27-2.94-1.96-5.71-2.04zm-27.71 44.08c-3.74 0.09-11.6 2.51-30.65 8.58-22.88 7.3-30.65 11.6-29.42 16.31 0.93 3.54 3.85 3.36 25.18-1.46 27.17-6.15 42.77-14.77 38.71-21.39-0.81-1.32-1.58-2.1-3.82-2.04z" transform="matrix(0.8 0 0 0.8 0 -.000048828)" fill="#007780"/>
</svg>
