<?xml version="1.0" encoding="UTF-8" standalone="no"?>
<svg xmlns:rdf="http://www.w3.org/1999/02/22-rdf-syntax-ns#" xmlns="http://www.w3.org/2000/svg" height="868.9" viewBox="0 0 634.85694 868.898" width="634.86" version="1.1" xmlns:cc="http://creativecommons.org/ns#" xmlns:dc="http://purl.org/dc/elements/1.1/">
<g transform="matrix(4 0 0 4 -.000016127 0)">
<rect height="10" width="10" y="42.289" x="62.328" fill="#ccc"/>
<path d="m77.328 0-21 21v4l12 12h5v-5l-9-9 15-15 15 15-9 9v5h5l12-12v-4l-21-21h-4zm-16 41v14h36v-14h-36zm4 2h3v9h-3v-9z" fill="#666"/>
<path d="m135.47 193.98a79.357 79.357 0 0 1 -112.23 0 79.357 79.357 0 0 1 -0.000002 -112.23 79.357 79.357 0 0 1 112.23 0.000012 79.357 79.357 0 0 1 0.00001 112.23z" fill="#805500"/>
<path style="color-rendering:auto;text-decoration-color:#000000;color:#000000;isolation:auto;mix-blend-mode:normal;shape-rendering:auto;solid-color:#000000;block-progression:tb;text-decoration-line:none;text-decoration-style:solid;image-rendering:auto;white-space:normal;text-indent:0;text-transform:none" d="m88.697 59.076c-3.283 9.068-7.596 20.749-11.478 30.447-3.475-9.51-7.345-20.972-10.317-29.949a79.357 79.357 0 0 0 -6 1.2148c3.6591 11.099 8.7471 26.196 12.904 36.986-0.11673 0.26857-0.24322 0.57273-0.35742 0.83203-4.2786 9.7143-9.0109 18.92-13.859 28.043-1.5474-5.2373-3.1419-10.446-4.8848-15.527-2.855-8.32-6.965-19.517-10.978-30.237 1.724-5.744 3.282-11.157 4.668-16.026a79.357 79.357 0 0 0 -7.3613 3.5898c-0.2946 1.0186-0.55432 1.9384-0.86133 2.9902-0.29954-0.79181-0.47872-1.2493-0.77148-2.0215a79.357 79.357 0 0 0 -5.2598 3.3184c1.1143 2.9417 1.9846 5.1969 3.1641 8.3398-2.4123 7.9748-4.9109 15.858-6.9902 21.48-3.0131 8.1479-6.3294 16-9.7871 23.73-2.6933-10.082-5.3927-20.893-7.8926-31.199a79.357 79.357 0 0 0 -4.373 7.7422c2.6813 10.885 5.533 22.066 8.3223 32.125-4.1947 9.0632-8.5042 18.05-12.691 27.213a79.357 79.357 0 0 0 3.0547 7.9551c0.13029-0.29028 0.34687-0.76829 0.47266-1.0488 3.7972-8.4688 7.7637-16.814 11.705-25.215 0.92508 3.1394 1.8363 6.1573 2.709 8.8516 3.1897 9.8483 7.3876 18.281 11.09 27.027-2.4785 5.4999-4.9566 11.089-7.3184 16.445a79.357 79.357 0 0 0 4.8613 4.0684c1.7811-4.0409 3.6719-8.3143 5.584-12.596 0.2304 0.63993 0.45923 1.2809 0.67969 1.9297 1.6061 4.7267 3.6062 11.61 5.4668 18.314a79.357 79.357 0 0 0 7.2363 3.3828c-2.2008-8.1083-4.846-17.457-6.9512-23.652-0.9144-2.691-1.9099-5.2607-2.9336-7.7832 2.2656-5.0044 4.4439-9.7554 6.25-13.543 3.848-8.0694 7.956-15.858 12.117-23.625 2.6129 8.9569 5.3389 17.87 8.6289 26.26 1.8847 4.8061 4.4141 10.505 7.1426 16.342-5.9954 11.531-12.462 23.029-15.797 28.889a79.357 79.357 0 0 0 6.1426 1.498c3.0944-5.441 7.936-14.063 12.936-23.516 5.3525 11.076 9.7682 19.588 12.266 24.361a79.357 79.357 0 0 0 6.3066 -1.0195c-2.8408-5.4508-9.2561-17.895-15.047-30.09 2.9927-5.8466 5.7695-11.558 7.8379-16.375 3.0439-7.0894 5.6436-14.552 8.1035-22.094 3.0713 6.3331 6.0933 12.709 8.9531 19.275 2.639 6.0591 6.0423 14.327 9.4316 22.65-2.3035 6.3769-5.0876 15.411-7.3848 23.156a79.357 79.357 0 0 0 7.3164 -3.1973c1.169-3.8582 2.3807-7.7739 3.5566-11.373 1.1854 2.9398 2.0143 5.0254 3.0664 7.6524a79.357 79.357 0 0 0 5.123 -3.5156c-1.685-4.1998-3.2409-8.0992-5.166-12.84 4.1146-10.746 9.7505-20.275 14.227-31.4 1.6484 3.8644 3.2879 7.7345 4.8867 11.639 1.3643 3.3315 3.3695 8.1618 5.1387 12.449a79.357 79.357 0 0 0 3.873 -6.5371c-1.1046-2.6816-2.4918-6.0199-3.3906-8.2148-2.4473-5.976-4.9582-11.853-7.4746-17.711 4.113-12.15 8.7311-28.222 12.961-43.812a79.357 79.357 0 0 0 -4.166 -7.9551c-3.953 14.805-8.3688 30.583-12.416 43.307-5.2746-12.328-10.44-24.715-14.883-37.869-1.1138-3.2977-2.3734-7.4687-3.6582-11.875 2.5691-6.3371 5.1336-12.554 7.5723-18.436a79.357 79.357 0 0 0 -5.2188 -3.3066c-1.614 3.8887-3.3196 8.0132-5.0508 12.24-1.6386-5.9279-3.1519-11.645-4.5059-16.826a79.357 79.357 0 0 0 -6.9336 -2.4688c2.0539 7.9596 4.8716 18.634 7.707 28.477-3.0317 7.5056-5.9056 14.762-8.0977 20.6-2.4024 6.3976-4.5554 12.993-6.6562 19.594-5.083-10.4-10.083-20.83-14.548-31.933-0.102-0.255-0.215-0.554-0.32-0.818 4.67-11.069 10.404-26.652 14.418-37.791a79.357 79.357 0 0 0 -6.096 -1.012zm-47.908 31.35c3.0595 8.2592 5.9993 16.339 8.1699 22.668 2.3462 6.8407 4.4407 14.019 6.5273 21.242-5.1506 9.5898-10.334 19.21-15.17 29.352-1.2011 2.5187-2.5624 5.4571-3.9883 8.5664-3.1147-7.0663-6.2816-13.903-8.7148-21.416-1.4448-4.4608-2.9923-9.718-4.5781-15.375 4.5762-9.9507 9.0193-20.095 12.979-30.801 1.4652-3.9622 3.1125-8.9615 4.7754-14.236zm72.006 9.3906c0.52771 1.6868 1.046 3.3096 1.5371 4.7637 5.3025 15.699 11.547 30.201 17.756 44.637-0.17268 0.49709-0.35515 1.0609-0.52539 1.541-3.7102 10.463-8.9767 19.635-13.488 29.965-2.5786-6.2747-5.0739-12.253-7.1152-16.939-3.7835-8.6868-7.8017-16.993-11.834-25.227 2.7273-8.6273 5.4062-17.235 8.4648-25.381 1.4581-3.8831 3.2809-8.5237 5.2051-13.359zm-35.83 5.7734c4.9024 11.648 10.278 22.56 15.617 33.441-3.0341 9.5543-6.1185 18.951-9.832 27.6-1.4964 3.4853-3.415 7.5236-5.5352 11.771-1.9197-4.2146-3.6557-8.2208-5.0137-11.684-3.8775-9.8878-7.0132-20.749-10.176-31.699 5.1279-9.5575 10.233-19.208 14.939-29.43z" fill-rule="evenodd" fill="#ffd37c"/>
</g>
</svg>
