<?xml version="1.0" encoding="UTF-8" standalone="no"?>
<!-- Generator: Adobe Illustrator 18.0.0, SVG Export Plug-In . SVG Version: 6.00 Build 0)  -->

<svg
   version="1.1"
   id="Capa_1"
   x="0px"
   y="0px"
   viewBox="0 0 482.303 482.303"
   style="enable-background:new 0 0 482.303 482.303;"
   xml:space="preserve"
   sodipodi:docname="christmastree.svg"
   inkscape:version="1.2.1 (9c6d41e410, 2022-07-14)"
   xmlns:inkscape="http://www.inkscape.org/namespaces/inkscape"
   xmlns:sodipodi="http://sodipodi.sourceforge.net/DTD/sodipodi-0.dtd"
   xmlns="http://www.w3.org/2000/svg"
   xmlns:svg="http://www.w3.org/2000/svg"><defs
   id="defs74" /><sodipodi:namedview
   id="namedview72"
   pagecolor="#505050"
   bordercolor="#ffffff"
   borderopacity="1"
   inkscape:showpageshadow="0"
   inkscape:pageopacity="0"
   inkscape:pagecheckerboard="1"
   inkscape:deskcolor="#505050"
   showgrid="false"
   inkscape:zoom="1.7354235"
   inkscape:cx="240.86339"
   inkscape:cy="149.24311"
   inkscape:window-width="1920"
   inkscape:window-height="1017"
   inkscape:window-x="1912"
   inkscape:window-y="-8"
   inkscape:window-maximized="1"
   inkscape:current-layer="Capa_1" />
<path
   d="M392.324,445.022l-70.883-122.773h34.257c1.072,0,2.062-0.572,2.598-1.5c0.536-0.928,0.536-2.072,0-3l-67.944-117.682  h29.042c1.072,0,2.062-0.571,2.598-1.5c0.536-0.928,0.536-2.071,0-3l-47.369-82.046h28.605c1.072,0,2.062-0.572,2.598-1.5  c0.536-0.928,0.536-2.072,0-3L243.75,1.5c-0.536-0.928-1.526-1.5-2.598-1.5s-2.062,0.572-2.598,1.5l-62.078,107.521  c-0.536,0.928-0.536,2.072,0,3c0.536,0.928,1.526,1.5,2.598,1.5h28.605l-47.369,82.046c-0.536,0.929-0.536,2.072,0,3  c0.536,0.929,1.526,1.5,2.598,1.5h29.042l-67.944,117.682c-0.536,0.928-0.536,2.072,0,3c0.536,0.928,1.526,1.5,2.598,1.5h34.257  L89.978,445.022c-0.536,0.928-0.536,2.072,0,3c0.536,0.928,1.526,1.5,2.598,1.5h123.383v29.78c0,1.657,1.343,3,3,3h44.373  c1.657,0,3-1.343,3-3v-29.78h123.394c1.072,0,2.062-0.572,2.598-1.5C392.86,447.095,392.86,445.95,392.324,445.022z   M260.332,476.303h-38.373v-26.78h38.373V476.303z M97.773,443.522l70.883-122.773c0.536-0.928,0.536-2.072,0-3  c-0.536-0.928-1.526-1.5-2.598-1.5H131.8l67.944-117.682c0.536-0.928,0.536-2.071,0-3c-0.536-0.928-1.526-1.5-2.598-1.5h-29.042  l47.369-82.046c0.536-0.928,0.536-2.072,0-3c-0.536-0.928-1.526-1.5-2.598-1.5H184.27L241.152,9l56.881,98.521h-28.605  c-1.072,0-2.062,0.572-2.598,1.5c-0.536,0.928-0.536,2.072,0,3l47.369,82.046h-29.042c-1.072,0-2.062,0.572-2.598,1.5  c-0.536,0.929-0.536,2.072,0,3l67.944,117.682h-34.257c-1.072,0-2.062,0.572-2.598,1.5c-0.536,0.928-0.536,2.072,0,3l70.883,122.773  H97.773z"
   id="path39" />
<g
   id="g41">
</g>
<g
   id="g43">
</g>
<g
   id="g45">
</g>
<g
   id="g47">
</g>
<g
   id="g49">
</g>
<g
   id="g51">
</g>
<g
   id="g53">
</g>
<g
   id="g55">
</g>
<g
   id="g57">
</g>
<g
   id="g59">
</g>
<g
   id="g61">
</g>
<g
   id="g63">
</g>
<g
   id="g65">
</g>
<g
   id="g67">
</g>
<g
   id="g69">
</g>
<path
   style="fill:#008000;stroke-width:0.576228"
   d="m 98.535023,443.12901 c 0,-0.15322 15.947117,-27.89554 35.438037,-61.64959 19.49092,-33.75405 35.43803,-61.85249 35.43803,-62.44097 0,-0.58849 -0.47419,-1.49912 -1.05377,-2.02363 -0.93153,-0.84302 -3.07052,-0.95365 -18.4393,-0.95365 -9.56204,0 -17.38553,-0.0979 -17.38553,-0.21753 0,-0.11964 14.81005,-25.85543 32.91123,-57.19065 18.10117,-31.33522 33.4424,-58.05601 34.09162,-59.37954 1.11939,-2.2821 1.13017,-2.48304 0.2086,-3.88954 l -0.97178,-1.48312 h -14.96864 c -8.23276,0 -14.96866,-0.10085 -14.96866,-0.22412 0,-0.12326 10.54371,-18.46893 23.43045,-40.76814 12.88675,-22.29922 23.54284,-41.0984 23.68019,-41.77597 0.13736,-0.67757 -0.0434,-1.77961 -0.40159,-2.44897 -0.63727,-1.19074 -0.97563,-1.21703 -15.66102,-1.21703 -8.60616,0 -14.92773,-0.22031 -14.8176,-0.51642 0.26637,-0.71614 56.07068,-97.3609972 56.15182,-97.2466862 0.57654,0.8121882 56.11664,97.3059362 56.11664,97.4954062 0,0.14723 -6.73274,0.2677 -14.96166,0.2677 -14.2024,0 -14.99192,0.0566 -15.55816,1.11458 -0.32807,0.61301 -0.5965,1.54038 -0.5965,2.06082 0,0.52044 10.63141,19.3612 23.62536,41.86836 12.99394,22.50716 23.62535,41.02749 23.62535,41.15629 0,0.1288 -6.73589,0.23418 -14.96865,0.23418 h -14.96864 l -0.97178,1.48312 c -0.92173,1.40674 -0.91081,1.60704 0.21224,3.88954 0.65121,1.32353 15.99244,28.03886 34.09161,59.36739 18.09918,31.32853 32.9076,57.06432 32.9076,57.19065 0,0.12632 -7.86854,0.22968 -17.48565,0.22968 -16.20801,0 -17.55533,0.077 -18.4393,1.05377 -0.52451,0.57958 -0.95365,1.48285 -0.95365,2.00728 0,0.52443 15.94711,28.57046 35.43803,62.32451 19.49092,33.75404 35.43804,61.50372 35.43804,61.66593 0,0.16222 -64.17742,0.29495 -142.61649,0.29495 -78.43906,0 -142.616477,-0.12537 -142.616477,-0.2786 z"
   id="path264" /><path
   style="fill:#28170b;stroke-width:0.576228"
   d="m 222.42409,462.99936 v -13.25324 h 18.72741 18.72742 v 13.25324 13.25325 H 241.1515 222.42409 Z"
   id="path520" /></svg>
