<?xml version="1.0" encoding="UTF-8" standalone="no"?>
<svg xmlns:rdf="http://www.w3.org/1999/02/22-rdf-syntax-ns#" xmlns="http://www.w3.org/2000/svg" height="868.86" width="634.82" version="1.1" xmlns:cc="http://creativecommons.org/ns#" xmlns:dc="http://purl.org/dc/elements/1.1/" viewBox="0 0 634.84003 868.87475">
<g transform="matrix(4 0 0 4 2.2682e-7 -.00065615)">
<rect height="10" width="10" y="42.289" x="62.328" fill="#ccc"/>
<path fill="#558000" d="m158.71 137.87a79.357 79.357 0 0 1 -79.353 79.35 79.357 79.357 0 0 1 -79.357 -79.35 79.357 79.357 0 0 1 79.357 -79.36 79.357 79.357 0 0 1 79.353 79.36z"/>
<path fill="#666" d="m77.328 0-21 21v4l12 12h5v-5l-9-9 15-15 15 15-9 9v5h5l12-12v-4l-21-21h-4zm-16 41v14h36v-14h-36zm4 2h3v9h-3v-9z"/>
<path fill="#d3ff7c" d="m66.109 72.383c0.012-0.068-0.664 0.334-2.017 1.142-5.996 3.584-7.803 4.524-10.371 5.393-5.537 1.874-10.061 0.611-14.307-3.994-0.281-0.306-0.368-0.368-0.266-0.192 0.632 1.088 1.275 4.656 1.323 7.342 0.181 10.168-5.426 14.539-15.252 11.893-0.409-0.11-0.421-0.101-0.219 0.162 2.504 3.268 3.145 7.791 1.75 12.351-0.823 2.69-2.592 5.97-4.297 7.98-0.128 0.15 0.038 0.03 0.359-0.25 6.546-5.82 14.335-6.44 19.815-1.58 0.229 0.2 0.432 0.38 0.449 0.38 0.018 0.01 0.033-0.18 0.035-0.43 0.053-4.89 1.345-10.26 3.155-13.123 3.215-5.09 8-6.031 14.861-2.924 0.6 0.272 0.986 0.432 0.953 0.395-0.03-0.034-0.276-0.315-0.547-0.621-6.146-6.947-6.179-14.747-0.086-20.225 0.219-0.197 1.367-1.105 2.553-2.018 1.398-1.075 2.098-1.613 2.109-1.681zm36.091 1.412c-0.03-0.034-0.13 0.44-0.33 1.389-0.9 4.203-1.24 5.412-1.925 6.933-1.478 3.279-3.946 4.786-7.8 4.766-0.256-0.001-0.32 0.011-0.198 0.039 0.755 0.172 2.632 1.379 3.862 2.484 4.651 4.183 4.271 8.541-1.043 11.854-0.221 0.14-0.221 0.15-0.018 0.17 2.522 0.24 4.824 1.85 6.292 4.39 0.87 1.5 1.6 3.67 1.79 5.28 0.02 0.12 0.03 0 0.04-0.27 0.13-5.38 3.12-9.15 7.6-9.58 0.19-0.02 0.35-0.03 0.36-0.04 0.01 0-0.07-0.09-0.18-0.2-2.18-2.07-4.05-4.906-4.58-6.922-0.95-3.583 0.64-6.134 4.91-7.92 0.38-0.156 0.61-0.263 0.58-0.264s-0.26-0.005-0.51-0.011c-5.7-0.146-9.23-3.404-9.14-8.446 0-0.181 0.08-1.079 0.16-1.996 0.1-1.08 0.15-1.622 0.13-1.656zm-46.751 7.385c0.111 0.034 0.203 0.2 0.113 0.297-0.022 0.024-0.285 0.347-0.582 0.716-6.494 8.076-15.916 18.047-23.386 24.747-0.734 0.66-0.785 0.69-0.914 0.59-0.139-0.12-0.081-0.19 0.922-1.09l0.978-0.88 10.457-11.07c5.752-6.087 10.615-11.257 10.809-11.49 0.194-0.232 0.595-0.721 0.89-1.088 0.296-0.366 0.565-0.688 0.602-0.715 0.035-0.025 0.074-0.029 0.111-0.017zm46.311 1.091c0.05 0.005 0.11 0.035 0.11 0.088 0 0.021 0.04 0.274 0.08 0.563 0.91 6.311 1.45 14.738 1.33 20.918-0.01 0.6-0.01 0.64-0.12 0.65s-0.11-0.04-0.1-0.87l0.01-0.81-0.59-9.351c-0.33-5.143-0.62-9.503-0.64-9.688-0.03-0.184-0.08-0.57-0.12-0.857s-0.07-0.543-0.07-0.57c0.01-0.053 0.06-0.077 0.11-0.073zm19.65 35.549c-0.03-0.02-0.07 0.05-0.15 0.2-1.9 3.65-5.72 6.15-10.44 6.82-2.79 0.39-6.51 0.18-9.05-0.52-0.19-0.05-0.01 0.05 0.38 0.22 8.04 3.47 11.9 10.26 9.82 17.28-0.09 0.3-0.16 0.56-0.16 0.57 0 0.02 0.19-0.04 0.41-0.15 4.45-2.02 9.86-3.12 13.22-2.7 5.98 0.76 8.86 4.69 8.95 12.23 0 0.65 0.02 1.07 0.04 1.03s0.17-0.39 0.33-0.76c3.69-8.51 10.75-11.85 18.29-8.65 0.27 0.12 1.58 0.77 2.91 1.46 1.45 0.76 2.17 1.12 2.33 1.16a79.357 79.357 0 0 0 0 -0.03c-0.07-0.09-0.63-0.48-1.81-1.27-5.78-3.92-7.4-5.16-9.27-7.11-4.05-4.23-4.82-8.86-2.44-14.66 0.15-0.38 0.17-0.48 0.06-0.32-0.72 1.04-3.68 3.13-6.09 4.31-9.14 4.47-15.47 1.24-17.24-8.78-0.03-0.21-0.06-0.31-0.09-0.33zm-9.82 10.93c0.1-0.04 0.38 0.07 1.32 0.46l1.21 0.52 14.45 4.78c7.95 2.64 14.7 4.85 14.99 4.93 0.3 0.08 0.91 0.23 1.37 0.34 0.45 0.12 0.86 0.23 0.9 0.25 0.15 0.08 0.01 0.37-0.16 0.32-0.03-0.01-0.44-0.11-0.9-0.23-10.06-2.46-23.09-6.77-32.32-10.7-0.91-0.38-0.96-0.42-0.92-0.58 0.01-0.04 0.03-0.07 0.06-0.09zm-51.887 1.26c-0.04 0.02-0.07 0.15-0.119 0.41-2.358 12.5-10.326 16.44-21.674 10.71-2.998-1.51-6.665-4.17-7.547-5.47-0.143-0.21-0.118-0.08 0.073 0.4 2.879 7.28 1.843 13.06-3.274 18.28-2.374 2.42-4.414 3.94-11.705 8.75-3.29 2.16-3.283 2.16 0.656 0.19 1.671-0.84 3.318-1.64 3.658-1.78 9.477-3.89 18.243 0.39 22.725 11.08 0.198 0.47 0.378 0.9 0.4 0.95 0.024 0.06 0.053-0.46 0.073-1.28 0.228-9.42 3.888-14.29 11.365-15.15 4.207-0.48 10.956 0.98 16.482 3.58 0.282 0.13 0.514 0.22 0.514 0.19 0-0.02-0.085-0.34-0.189-0.71-2.489-8.81 2.437-17.24 12.535-21.45 0.495-0.21 0.715-0.33 0.476-0.27-3.183 0.83-7.84 1.04-11.316 0.5-5.893-0.91-10.63-4.08-12.949-8.67-0.094-0.19-0.144-0.28-0.184-0.26zm11.963 13.81c0.069-0.01 0.115-0.01 0.146 0.01 0.042 0.01 0.059 0.05 0.073 0.11 0.051 0.2-0.013 0.24-1.153 0.71-11.604 4.77-27.949 9.96-40.568 12.89-0.577 0.13-1.081 0.25-1.121 0.26-0.21 0.07-0.387-0.3-0.195-0.4 0.049-0.03 0.56-0.16 1.132-0.29 0.573-0.14 1.342-0.32 1.709-0.41 0.368-0.09 8.83-2.76 18.807-5.93l18.141-5.76 1.525-0.63c0.88-0.35 1.297-0.52 1.504-0.56zm20.391 34.29c0.01 0.06 0.705 0.61 2.091 1.7 1.177 0.92 2.316 1.84 2.534 2.04 6.038 5.54 5.928 13.34-0.289 20.23-0.275 0.3-0.525 0.58-0.555 0.61-0.033 0.04 0.354-0.12 0.957-0.39 6.895-3.03 11.665-2.05 14.835 3.08 0.66 1.07 1.25 2.49 1.73 4.11a79.357 79.357 0 0 0 5.97 -3.18c-5.73-5.84-11.71-12.53-16.24-18.28-0.3-0.37-0.56-0.7-0.58-0.72-0.09-0.1 0.01-0.27 0.12-0.3 0.03-0.01 0.07-0.01 0.11 0.02 0.03 0.02 0.3 0.35 0.59 0.72 0.3 0.37 0.69 0.86 0.88 1.1 0.19 0.23 5.01 5.45 10.7 11.59l5.08 5.49a79.357 79.357 0 0 0 7.62 -5.13c-6.63-0.04-10.24-4.51-10.01-12.75 0.07-2.68 0.75-6.24 1.39-7.32 0.11-0.18 0.02-0.12-0.27 0.18-4.29 4.57-8.82 5.78-14.34 3.86-2.56-0.9-4.36-1.86-10.318-5.5-1.344-0.82-2.016-1.23-2.005-1.16zm-28.963 9.6c0.007-0.04-0.41 0.2-1.242 0.7-3.69 2.21-4.803 2.79-6.383 3.32-3.408 1.16-6.19 0.38-8.803-2.46-0.173-0.18-0.227-0.22-0.164-0.11 0.389 0.67 0.785 2.86 0.814 4.51 0.112 6.26-3.339 8.95-9.386 7.32-0.252-0.07-0.259-0.06-0.135 0.1 1.093 1.43 1.599 3.25 1.5 5.18a79.357 79.357 0 0 0 3.203 1.81l6.397-6.77c3.539-3.74 6.533-6.92 6.652-7.07 0.119-0.14 0.365-0.44 0.547-0.67 0.181-0.22 0.348-0.42 0.371-0.44 0.021-0.01 0.046-0.01 0.068-0.01 0.068 0.02 0.125 0.13 0.071 0.19-0.015 0.01-0.175 0.21-0.358 0.44-3.755 4.66-9.088 10.34-13.533 14.44a79.357 79.357 0 0 0 6.289 2.97c0.205-2.62 0.924-5.27 1.881-6.79 1.979-3.13 4.922-3.71 9.144-1.8 0.37 0.17 0.608 0.27 0.588 0.24-0.018-0.02-0.171-0.19-0.338-0.38-3.782-4.27-3.802-9.07-0.052-12.44 0.134-0.12 0.842-0.68 1.572-1.25 0.86-0.66 1.29-0.99 1.297-1.03z"/>
</g>
</svg>
