<?xml version="1.0" encoding="UTF-8" standalone="no"?>
<svg xmlns:rdf="http://www.w3.org/1999/02/22-rdf-syntax-ns#" xmlns="http://www.w3.org/2000/svg" viewBox="0 0 439.97873 896.30865" height="896.31pt" width="439.98pt" version="1.1" xmlns:cc="http://creativecommons.org/ns#" xmlns:dc="http://purl.org/dc/elements/1.1/">
<path d="m222.94 0.0004745c-2.548-0.01236-5.1722 0.21656-7.8609 0.70781-39.78 1.8-54.96 53.43-28.2 79.95-28.92 4.83-8.6709 45.429-15.511 65.019 37.182-6.7832 56.016-6.4735 97.233-0.0563-6.93-19.53 13.2-60.043-15.6-64.963 29.42-26.352 8.16-80.471-30.06-80.657zm-4.3266 10.702c20.438-0.55589 41.043 15.083 37.448 37.256 3 33.84-48.994 38.701-67.594 18.661-10.92-18.81-4.4091-48.813 18.961-53.883 3.6187-1.275 7.3995-1.9314 11.184-2.0344z" fill="#808080"/>
<path d="m212.5 161.5c-56.81-0.07-108.31 34.39-141.86 78.86-30.578 38.13-46.589 86.98-45.869 135.93 0.76964 75.512 27.244 148.24 60.698 214.87 40.997 81.314 81.951 162.66 123.23 243.82 3.2197 10.659 18.349 10.247 21.371-0.36225 43.85-83.187 86.196-167.21 128.36-251.28 25.65-51.552 45.52-106.71 54.063-163.91 9.2876-67.21-6.0276-140.37-52.545-191.15-34.495-38.783-83.64-68.027-136.54-66.705-3.637-0.11418-7.2763-0.12531-10.915-0.0839z" fill="#cdff6c"/>
<path d="m273.09 173.76c-18.14-0.04-35.64 1.98-58.88 6.22-108.3 31.58-199.76 126.87-212.58 241.02-12.83 143.13 52.534 276.37 115.76 400.01 52.72 99.11 106.95 197.49 154.5 299.19 7.8 1.5 8.85-7.9 12.22-12.7 62.96-133.64 139.24-260.58 201.41-394.64 37.35-88.65 73.01-182.44 62.63-280.54-5.44-119.17-101.17-219.6-212.4-252.41-25.76-4.01-44.52-6.11-62.66-6.15zm4.17 37.63c109.59 1.07 206.82 95.85 224.73 202.56 20.88 92.77-12.38 184.42-45.53 269.77-58.39 117.23-120.3 232.69-179.1 349.58-1.35 0.2-4.12 0.6-5.47 0.7-57.08-115.87-117.71-229.94-176.14-345.14-39.525-96.68-74.254-205.05-40.354-308.66 30.113-78.12 95.444-150.64 181.05-164.82 13.71-2.84 27.35-4.12 40.81-3.99zm-5.05 86.79c-4.93-0.29-9.79 4.14-14.84 13.16-3.97 7.08-9.07 13.31-19.44 23.74-28.18 28.36-32.29 43.96-11.56 43.96h5.53v5.3c0 7.48-3.04 11.35-20.69 26.32-16.5 14-19.47 18.13-19.47 27.12l-0.01 5.78h12.18c14.68 0 14.66-0.16 2.13 11.64-11.55 10.87-10.71 11.15 8.45 2.78 46.77-20.43 81.11-55.19 90.4-91.5l2.43-9.52-3.6-7.15c-1.99-3.93-5.86-12.79-8.6-19.69-8.36-21.02-15.72-31.52-22.91-31.94zm42.59 65.91c-1.86 0.04-2.51 2.2-3.73 7.04-9.41 37.36-60.45 87.31-98.95 96.85-19.14 4.74 25.98 22.11 67.26 25.9 39.25 3.6 78.36-0.15 72.13-6.91-9.79-10.62-9.25-11.71 5.85-11.75 21.19-0.04 17.34-10.97-12.58-35.71-27.91-23.08-37-37.01-25.54-39.13 25.26-4.64 26.5-18.47 2.93-32.78-3.74-2.28-5.92-3.54-7.37-3.51zm-123.51 104.76c-1.84 0.01-3.82 1.69-7.98 5.05-19.36 15.65-20.01 34.17-1.21 34.17h7.2v4.91c0 10.96-5.39 17.73-25.8 32.39-18.98 13.63-18.46 23.47 1.24 23.55l5.26 0.02-5.26 7.54c-4.41 6.32-6.79 8.36-14.67 12.56-5.18 2.75-9.79 5.38-10.25 5.84s8.78 0.84 20.54 0.84c87.83 0 149.43-26.15 187.81-79.73 4.32-6.03 7.86-11.29 7.87-11.69 0.02-0.4-16.27-1.12-36.19-1.59-69.3-1.67-99.44-8.85-121.39-28.9-3.62-3.32-5.33-4.97-7.17-4.96zm174.25 37.52c-2.01-0.07-2.92 1.43-4.58 4.43-33.8 61.01-96.16 89.32-204.75 92.94l-22.75 0.76-1.9 4.01c-7.24 15.26 2.53 20.24 30.96 15.78 6.36-0.99 22.52-2.34 35.91-2.99s27.49-1.42 31.34-1.7l7-0.52v10.4 10.4l7.61-0.63c4.78-0.4 11.68-2.3 18.57-5.12 15.11-6.19 22.39-6.89 27.41-2.67 2.1 1.77 4.18 3.24 4.63 3.28 13.91 1.11 20.33 2.38 23.15 4.58 1.78 1.39 4.74 2.55 6.58 2.59l3.35 0.07v-10.28c0-12.86-4.28-11.54 41.64-12.79 41.69-1.13 46.78-1.84 50.86-7.02 5.48-6.97 0.46-15.7-19.16-33.3-25.26-22.65-27.82-29.13-11.5-29.13 24.55 0 17.01-21.84-13.15-38.09-6.08-3.28-9.2-4.93-11.22-5z" fill="#538000" transform="matrix(0.8 0 0 0.8 0 -.000048828)"/>
</svg>
