<?xml version="1.0" encoding="UTF-8" standalone="no"?>
<svg xmlns:rdf="http://www.w3.org/1999/02/22-rdf-syntax-ns#" xmlns="http://www.w3.org/2000/svg" height="868.9" width="634.86" version="1.1" xmlns:cc="http://creativecommons.org/ns#" xmlns:dc="http://purl.org/dc/elements/1.1/" viewBox="0 0 634.85694 868.898">
<g transform="matrix(4 0 0 4 -.000016127 0)">
<rect height="10" width="10" y="42.289" x="62.328" fill="#ccc"/>
<path fill="#666" d="m77.328 0-21 21v4l12 12h5v-5l-9-9 15-15 15 15-9 9v5h5l12-12v-4l-21-21h-4zm-16 41v14h36v-14h-36zm4 2h3v9h-3v-9z"/>
<path d="m135.47 193.98a79.357 79.357 0 0 1 -112.23 0 79.357 79.357 0 0 1 -0.000002 -112.23 79.357 79.357 0 0 1 112.23 0.000012 79.357 79.357 0 0 1 0.00001 112.23z" fill="#800080"/>
<path d="m68.264 63.09c-2.3504 0.2485-7.0714 3.0764-15.533 9.0156-25.346 17.79-32.043 24.687-27.961 28.791 2.1274 2.1389 6.9806 0.5724 28.031-9.0508 18.465-8.4413 39.43-16.47 39.43-15.1 0 2.3267-14.731 14.316-38 30.928-36.21 25.85-49.383 40.738-42.307 47.814 7.3801 7.3801 32.947-6.3741 80.654-43.385 46.409-36.004 39.533-21.555-10.023 21.061-48.466 41.678-60.408 55.547-53.645 62.311 6.8036 6.8036 22.418-1.8849 78.236-43.537 37.167-27.734 36.96-27.596 34.705-23.234-2.6601 5.144-16.29 18.807-39.621 39.717-32.683 29.291-38.773 36.346-34.801 40.318 1.9698 1.9698 8.9401 1.3471 14.641-1.3066 8.9447-4.164 25.301-15.433 52.098-35.896 3.9385-3.0076-4.2297 10.891-11.688 19.887-5.8035 7.0006-6.5619 9.5156-2.8672 9.5156 5.8918 0 23.324-27.059 22.428-34.814-0.7811-6.7622-5.23-4.8132-25.781 11.291-21.452 16.81-31.892 23.591-40.029 26.006-3.7313 1.1072 1.2458-3.8578 30.605-30.533 38.462-34.945 48.42-47.535 41.887-52.957-4.4171-3.6659-8.5654-1.2117-45.492 26.906-83.194 63.348-95.223 58.435-18-7.3516 36.459-31.06 47.44-42.917 46.797-50.537-0.76336-9.0495-9.89-4.9068-46.297 21.018-42.475 30.245-59.879 40.973-66.475 40.973-9.9264 0 4.0289-13.668 42.975-42.088 53.51-39.048 52.581-51.547-2-26.9-25.187 11.374-25.245 11.335-4.9746-3.3848 12.047-8.7483 14.975-11.338 14.975-13.25 0-1.593-0.55654-2.3737-1.9668-2.2246z" fill="#ff7cff"/>
</g>
</svg>
