<?xml version="1.0" encoding="UTF-8" standalone="no"?>
<svg xmlns:rdf="http://www.w3.org/1999/02/22-rdf-syntax-ns#" xmlns="http://www.w3.org/2000/svg" height="868.9" viewBox="0 0 634.85694 868.898" width="634.86" version="1.1" xmlns:cc="http://creativecommons.org/ns#" xmlns:dc="http://purl.org/dc/elements/1.1/">
<g transform="matrix(4 0 0 4 -.000016127 0)">
<rect height="10" width="10" y="42.289" x="62.328" fill="#ccc"/>
<path d="m77.328 0-21 21v4l12 12h5v-5l-9-9 15-15 15 15-9 9v5h5l12-12v-4l-21-21h-4zm-16 41v14h36v-14h-36zm4 2h3v9h-3v-9z" fill="#666"/>
<path d="m135.47 193.98a79.357 79.357 0 0 1 -112.23 0 79.357 79.357 0 0 1 -0.000002 -112.23 79.357 79.357 0 0 1 112.23 0.000012 79.357 79.357 0 0 1 0.00001 112.23z" fill="#ced100"/>
<path style="color-rendering:auto;text-decoration-color:#000000;color:#000000;isolation:auto;mix-blend-mode:normal;shape-rendering:auto;solid-color:#000000;block-progression:tb;text-decoration-line:none;text-decoration-style:solid;image-rendering:auto;white-space:normal;text-indent:0;text-transform:none" d="m81.422 58.578c2.0712 4.0451 5.648 7.3476 9.9414 8.9141 6.1781 2.456 13.272 1.0522 18.559-2.793a79.357 79.357 0 0 0 -5.1582 -1.9707c-2.341 1.1439-4.9387 1.7453-7.5625 1.6016-4.1073-0.05421-7.8887-2.2233-10.373-5.4023a79.357 79.357 0 0 0 -5.4062 -0.34961zm-4.2656 0.06055a79.357 79.357 0 0 0 -10.1 0.91406c6.8992 5.0552 10.612 14.377 8.6113 22.791-1.9904 9.8994-12.494 16.853-22.375 15.355-9.386-1.028-16.593-10.569-15.438-19.853 0.352-4.481 2.896-8.468 6.451-11.086a79.357 79.357 0 0 0 -9.5645 5.5312c-1.14 2.982-1.511 6.208-1.217 9.393-0.467-0.577-1.165-0.95-2.084-0.838-1.749-0.727-3.578-1.239-5.439-1.586a79.357 79.357 0 0 0 -2.7578 2.4941 79.357 79.357 0 0 0 -1.2949 1.3887c3.3561 0.15257 6.68 0.99265 9.6719 2.5293 1.2579 0.30182 2.0201-0.21454 2.3613-1.002 0.95901 4.2194 3.0959 8.1876 6.1934 11.188 3.1281 3.1831 7.1865 5.1457 11.49 5.9355-4.0165 1.4025-7.6824 3.8009-10.643 6.8711 0.24975-4.2868-0.72794-8.6132-3.1523-12.268-4.033-6.411-11.931-10.222-19.417-9.304a79.357 79.357 0 0 0 -4.4805 5.8848c1.8293-1.0198 3.8835-1.6221 6.0254-1.6504 8.0903-0.44328 15.978 6.1052 16.621 14.268 1.1417 9.1839-5.8991 18.612-15.137 19.811-1.8523-0.19067-3.7311-0.16817-5.584 0.0586-5.1396-0.69969-9.9982-3.4491-13.275-7.4531a79.357 79.357 0 0 0 -2.4063 24.531c0.88068-1.3792 1.6298-2.8442 2.2324-4.3711 3.1702-4.4091 8.198-7.4987 13.576-8.3555 1.8006 0.1697 3.615 0.14861 5.4043-0.0742 0.10587 0.0141 0.21262 0.0152 0.31836 0.0312 9.3869 1.0281 16.592 10.567 15.438 19.852-0.6429 8.1624-8.5308 14.713-16.621 14.27-6.8139-0.0899-12.756-5.979-13.309-12.693-0.75182-5.9777 3.8071-11.913 9.7344-12.857 5.313-1.1786 11.013 3.0034 11.387 8.4473 0.59526 4.2389-3.3855 8.4935-7.6855 7.7734-2.495-0.1267-5.1049-3.4662-3.0859-5.5625 0.8556 0.78928 3.6034 2.491 4.8125 0.23828 1.6131-3.293-2.7881-6.2223-5.7363-4.9746-4.0823 1.3578-5.1201 6.7833-3.1172 10.227 2.8777 5.2886 10.655 5.7416 14.986 2.0449 4.767-3.7931 5.3118-11.157 2.1875-16.146-3.2465-5.5539-10.535-7.7098-16.518-5.8574-6.45 1.7695-10.973 8.0767-11.312 14.646-0.61549 7.74 4.6108 15.247 11.82 17.877 8.5573 3.4018 18.89-0.57386 23.709-8.2324 0.63187-0.95243 1.1542-1.9553 1.5938-2.9863 0.31528 0.84923 1.0924 1.427 2.4082 1.1113 5.6449-2.8992 12.47-3.3499 18.467-1.2949 10.433 3.2329 16.852 15.193 14.35 25.715-1.9904 9.8994-12.495 16.853-22.377 15.355-9.3869-1.0281-16.592-10.569-15.438-19.854 0.6429-8.1624 8.5289-14.711 16.619-14.268 6.814 0.0899 12.758 5.979 13.311 12.693 0.75182 5.9777-3.807 11.913-9.7344 12.857-5.313 1.1786-11.013-3.0053-11.387-8.4492-0.59526-4.2389 3.3855-8.4934 7.6855-7.7734 2.495 0.1267 5.1049 3.4682 3.0859 5.5644-0.85559-0.78927-3.6034-2.491-4.8125-0.23828-1.6131 3.293 2.7881 6.2203 5.7363 4.9727 4.0823-1.3578 5.1201-6.7833 3.1172-10.227-2.8777-5.2886-10.657-5.7416-14.988-2.0449-4.767 3.7931-5.3098 11.157-2.1855 16.146 3.2465 5.5539 10.533 7.7118 16.516 5.8594 6.45-1.7695 10.973-8.0767 11.312-14.646 0.61548-7.74-4.6089-15.249-11.818-17.879-8.5572-3.4018-18.89 0.57579-23.709 8.2344-0.63194 0.95252-1.1542 1.9551-1.5938 2.9863-0.31528-0.84923-1.0924-1.427-2.4082-1.1113-5.6449 2.8992-12.47 3.3499-18.467 1.2949-3.4115-1.0572-6.3821-3.0585-8.7637-5.627a79.357 79.357 0 0 0 3.421 7.98c2.127 1.1781 4.4002 2.085 6.7676 2.6309-1.6816 0.094-3.3544 0.34046-4.9922 0.73046a79.357 79.357 0 0 0 2.3398 3.9434c3.9448-0.68851 8.0656-0.39249 11.855 0.90625 10.088 3.1261 16.423 14.413 14.568 24.668a79.357 79.357 0 0 0 6.1445 3.2617c2.1267-1.9286 4.6239-3.439 7.4238-4.3066 2.6235-0.89904 5.407-1.3172 8.1797-1.2617 3.5649 0.0713 7.1138 0.92582 10.289 2.5566 0.80985 0.19431 1.4075 0.0409 1.8301-0.29492 0.29012 2.9764 1.1653 5.9044 2.5605 8.5566-5.2998-5.9992-14.268-8.7836-21.85-5.7695-1.5601 0.56922-3.0182 1.3786-4.3535 2.3574a79.357 79.357 0 0 0 5.1465 1.9629c1.5708-0.71632 3.2763-1.1349 5.043-1.1582 4.4854-0.24576 8.9036 1.6643 12.064 4.8008a79.357 79.357 0 0 0 11.238 0.2832c-3.9288-3.858-6.2139-9.4557-5.5273-14.979 0.6429-8.1624 8.5308-14.713 16.621-14.27 6.8139 0.0899 12.756 5.979 13.309 12.693 0.75182 5.9777-3.807 11.913-9.7344 12.857-5.313 1.1786-11.013-3.0034-11.387-8.4473-0.59526-4.2389 3.3855-8.4935 7.6855-7.7734 2.495 0.1267 5.1049 3.4682 3.0859 5.5645-0.85559-0.78927-3.6034-2.4929-4.8125-0.24024-1.6131 3.293 2.7881 6.2223 5.7363 4.9746 4.0823-1.3578 5.1201-6.7833 3.1172-10.227-2.8777-5.2886-10.655-5.7416-14.986-2.0449-4.767 3.7931-5.3118 11.157-2.1875 16.146 1.3732 2.3492 3.4739 4.0828 5.8887 5.1699a79.357 79.357 0 0 0 18.389 -4.6055c2.0865-2.6605 3.3779-5.9694 3.5527-9.3535 0.61548-7.74-4.6108-15.247-11.82-17.877-8.5572-3.4018-18.89 0.57385-23.709 8.2324-1.8654 2.8117-2.8582 6.0235-3.1113 9.3066-0.46446-0.49461-1.1245-0.79548-1.9668-0.69336-2.0973-0.87061-4.3047-1.4587-6.5508-1.7871 1.1988-0.44091 2.3632-0.97414 3.4707-1.6055 6.4232-3.4347 10.678-9.969 12.006-17.039 0.31928 0.84022 1.095 1.4074 2.4023 1.0938 3.1753-1.6308 6.7242-2.4854 10.289-2.5566 2.7727-0.0554 5.5542 0.36269 8.1777 1.2617 10.433 3.2329 16.852 15.195 14.35 25.717-0.17293 0.86008-0.43109 1.688-0.72656 2.5a79.357 79.357 0 0 0 19.873 -13.826c-8.9696-0.0599-17.735-6.5697-19.535-15.523-2.5024-10.521 3.9151-22.484 14.348-25.717 2.6235-0.89904 5.4051-1.3172 8.1777-1.2617 3.5649 0.0713 7.1138 0.92582 10.289 2.5566 0.81084 0.19455 1.4094 0.0398 1.832-0.29687 0.29012 2.979 1.1653 5.9102 2.5625 8.5644-5.2992-6.0027-14.27-8.7903-21.854-5.7754-7.2095 2.6304-12.434 10.137-11.818 17.877 0.33939 6.5698 4.8626 12.877 11.312 14.646 3.1806 0.98482 6.7252 0.82605 9.8398-0.36329a79.357 79.357 0 0 0 8.6172 -12.082c0.10383-3.6151-1.2244-7.249-4.127-9.5586-4.3311-3.6966-12.109-3.2437-14.986 2.0449-2.0029 3.4433-0.96512 8.8688 3.1172 10.227 2.9483 1.2476 7.3475-1.6816 5.7344-4.9746-1.2091-2.2527-3.9569-0.54903-4.8125 0.24024-2.0189-2.0963 0.5929-5.4378 3.0879-5.5644 4.3-0.72003 8.2788 3.5345 7.6836 7.7734-0.37363 5.4439-6.0737 9.6259-11.387 8.4473-5.9273-0.94444-10.484-6.8797-9.7324-12.857 0.55224-6.7144 6.4947-12.603 13.309-12.693 6.665-0.36519 13.182 4.0197 15.635 10.139a79.357 79.357 0 0 0 3.9 -10.24c-1.4822-3.0132-2.172-6.4045-1.7539-9.7676 0.30531-3.8762 2.2554-7.3764 5.0742-9.9492a79.357 79.357 0 0 0 0.0156 -5.4941c-1.529 0.96088-2.9411 2.1065-4.166 3.4277 1.2971-2.5053 2.1297-5.251 2.4492-8.0488 0.39193 0.22015 0.90981 0.29259 1.5586 0.15039a79.357 79.357 0 0 0 -0.64648 -4.7754c-0.31376 0.083-0.59202 0.22562-0.83008 0.41797-0.20015-2.6072-0.86812-5.1672-2.0723-7.5195 0.37801 0.43236 0.76899 0.8523 1.1816 1.252 0.27051 0.27527 0.54978 0.53831 0.83398 0.79493a79.357 79.357 0 0 0 -7.3086 -20.398c-0.0892 0.56372-0.16504 1.1294-0.20899 1.6992-0.46437-0.49344-1.1256-0.79339-1.9668-0.69141-2.0967-0.87035-4.3035-1.4587-6.5488-1.7871 1.1988-0.44092 2.3612-0.97609 3.4688-1.6074 0.983-0.52565 1.9083-1.1314 2.7871-1.793a79.357 79.357 0 0 0 -2.3945 -3.7793c-4.2743 3.3058-9.8271 5.0085-15.207 4.1934-9.3869-1.0281-16.594-10.567-15.439-19.852 0.26013-3.3026 1.719-6.3297 3.8848-8.748a79.357 79.357 0 0 0 -4.0254 -2.0156c-0.39388 0.50397-0.77015 1.0223-1.1113 1.5645-0.63188 0.95243-1.1523 1.9553-1.5918 2.9863-0.31535-0.84906-1.0926-1.427-2.4082-1.1113-5.6449 2.8992-12.472 3.3518-18.469 1.2969-6.109-1.89-10.825-6.791-13.194-12.635zm-16.053 2.1016a79.357 79.357 0 0 0 -10.146 3.0918c1.1547-0.21841 2.332-0.31887 3.5176-0.25391 6.8139 0.08994 12.756 5.979 13.309 12.693 0.75182 5.9777-3.807 11.913-9.7344 12.857-5.314 1.179-11.012-3.005-11.386-8.449-0.59526-4.2389 3.3836-8.4935 7.6836-7.7734 2.495 0.1267 5.1068 3.4682 3.0879 5.5645-0.85559-0.78927-3.6034-2.491-4.8125-0.23828-1.6131 3.293 2.7861 6.2203 5.7344 4.9727 4.0823-1.3578 5.1201-6.7833 3.1172-10.227-2.8777-5.2886-10.655-5.7416-14.986-2.0449-4.767 3.7931-5.3098 11.157-2.1855 16.146 3.2465 5.5539 10.533 7.7118 16.516 5.8594 6.45-1.7695 10.973-8.0767 11.312-14.646 0.591-7.452-4.235-14.677-11.028-17.553zm18.256 8.7363c3.4673 3.2922 7.7704 5.7088 12.42 6.7812-3.1145 0.17429-6.2019 0.85245-9.084 2.0488-0.99952-0.12118-1.7387 0.32926-2.2012 0.99414 0.14408-1.8467 0.08666-3.708-0.1875-5.5391-0.1806-1.4649-0.50394-2.8956-0.94727-4.2852zm42.621 1.5684c-4.0785 3.9369-4.4104 10.776-1.4551 15.496 3.2465 5.5539 10.533 7.7098 16.516 5.8574 1.9474-0.53426 3.716-1.4868 5.25-2.7305a79.357 79.357 0 0 0 -2.7793 -3.4492c-1.5096 1.2069-3.2982 2.0597-5.2402 2.3691-5.313 1.1786-11.011-3.0034-11.385-8.4473-0.35636-2.5376 0.93162-5.0726 2.9414-6.5508a79.357 79.357 0 0 0 -3.8476 -2.5449zm-89.511 2.922a79.357 79.357 0 0 0 -0.75 0.55273c0.25298-0.1804 0.50308-0.36398 0.75-0.55273zm77.678 0.52344c-0.53029 2.3759-0.63027 4.8395-0.33789 7.2715-3.0295-2.3348-6.5325-4.0473-10.252-4.9043 3.1159-0.17394 6.2046-0.85195 9.0879-2.0488 0.59409 0.07202 1.093-0.06332 1.502-0.31836zm19.693 2.2422c-0.38177 0.16366-0.7282 0.45989-0.99609 0.95898-1.6131 3.293 2.7881 6.2223 5.7363 4.9746 0.43539-0.14481 0.82918-0.34421 1.1953-0.57422a79.357 79.357 0 0 0 -0.30469 -0.33789 79.357 79.357 0 0 0 -5.6309 -5.0215zm-37.033 3.8438c2.7727-0.05543 5.5542 0.36268 8.1777 1.2617 10.433 3.2329 16.85 15.195 14.348 25.717-1.9904 9.8994-12.494 16.851-22.375 15.354-9.3869-1.0281-16.594-10.567-15.439-19.852 0.6429-8.1624 8.5308-14.713 16.621-14.27 6.8139 0.08994 12.756 5.979 13.309 12.693 0.75182 5.9777-3.8051 11.913-9.7324 12.857-5.313 1.1786-11.013-3.0034-11.387-8.4473-0.59526-4.2389 3.3836-8.4935 7.6836-7.7734 2.495 0.1267 5.1068 3.4682 3.0879 5.5644-0.85559-0.78927-3.6034-2.4929-4.8125-0.24023-1.6131 3.293 2.7861 6.2223 5.7344 4.9746 4.0823-1.3578 5.1201-6.7833 3.1172-10.227-2.8777-5.2886-10.655-5.7416-14.986-2.0449-4.767 3.7931-5.3098 11.157-2.1855 16.146 3.2465 5.5539 10.533 7.7098 16.516 5.8574 6.45-1.7695 10.973-8.0767 11.312-14.646 0.61548-7.74-4.6088-15.247-11.818-17.877-8.5572-3.4018-18.892 0.57386-23.711 8.2324-1.865 2.8112-2.8579 6.0222-3.1113 9.3047-0.46437-0.49344-1.1256-0.79339-1.9668-0.69141-2.0967-0.87036-4.3035-1.4587-6.5488-1.7871 1.1988-0.44091 2.3612-0.97413 3.4688-1.6055 6.4226-3.4344 10.68-9.9677 12.008-17.037 0.3198 0.83902 1.0961 1.4052 2.4023 1.0918 3.1753-1.6308 6.7242-2.4854 10.289-2.5566zm-71.789 15.694c-3.2339 0.03689-6.4028 1.4822-8.0215 4.457-2.0029 3.4433-0.96512 8.8708 3.1172 10.229 2.9483 1.2477 7.3495-1.6816 5.7363-4.9746-1.2091-2.2527-3.9589-0.551-4.8145 0.23828-2.0189-2.0963 0.5929-5.4378 3.0879-5.5644 4.3-0.72003 8.2789 3.5346 7.6836 7.7734-0.37362 5.4439-6.0718 9.6279-11.385 8.4492-5.232-0.83364-9.391-5.5561-9.7793-10.764a79.357 79.357 0 0 0 -2.498 6.5391c1.9443 3.8115 5.3145 6.8848 9.5078 8.0352 5.9827 1.8524 13.269-0.30348 16.516-5.8574 3.1243-4.9898 2.5815-12.355-2.1855-16.148-1.8949-1.6173-4.4496-2.4408-6.9648-2.4121zm98.822 1.824c2.4423 1.5753 5.1845 2.6352 8.0449 3.1602-2.835 0.98993-5.4909 2.4822-7.8535 4.3496 0.26805-2.2038 0.26597-4.4371-0.0625-6.6309-0.0363-0.29437-0.0815-0.58717-0.1289-0.87891zm17.457 6.1055c3.5649 0.0713 7.1138 0.92777 10.289 2.5586 0.81084 0.19455 1.4094 0.0398 1.832-0.29687 0.29025 2.9803 1.1662 5.9113 2.5645 8.5664-5.2989-6.0042-14.271-8.7926-21.855-5.7773-7.2095 2.6304-12.434 10.137-11.818 17.877 0.33939 6.5698 4.8626 12.877 11.312 14.646 5.9827 1.8524 13.269-0.30348 16.516-5.8574 3.1243-4.9898 2.5815-12.355-2.1856-16.148-4.3311-3.6966-12.109-3.2436-14.986 2.0449-2.0029 3.4433-0.96512 8.8708 3.1172 10.229 2.9483 1.2476 7.3475-1.6816 5.7344-4.9746-1.2091-2.2527-3.9569-0.55099-4.8125 0.23828-2.0189-2.0963 0.5929-5.4378 3.0879-5.5645 4.3-0.72003 8.2788 3.5346 7.6836 7.7734-0.37363 5.4439-6.0737 9.6279-11.387 8.4492-5.9273-0.94444-10.484-6.8797-9.7324-12.857 0.55223-6.7143 6.4947-12.603 13.309-12.693 8.0903-0.44329 15.978 6.1052 16.621 14.268 1.1542 9.2845-6.0526 18.825-15.439 19.854-9.8815 1.4972-20.385-5.456-22.375-15.355-2.5024-10.521 3.9151-22.482 14.348-25.715 2.6235-0.89904 5.4051-1.3191 8.1777-1.2637zm-76.223 0.54101c3.5649 0.0713 7.1138 0.92581 10.289 2.5566 0.81084 0.19454 1.4094 0.0398 1.832-0.29688 0.29012 2.979 1.1653 5.9102 2.5625 8.5644-5.2992-6.0027-14.27-8.7903-21.854-5.7754-7.2095 2.6304-12.434 10.137-11.818 17.877 0.33938 6.5698 4.8625 12.877 11.312 14.646 5.9827 1.8524 13.269-0.30349 16.516-5.8574 3.1243-4.9898 2.5815-12.353-2.1855-16.146-4.3311-3.6966-12.109-3.2436-14.986 2.0449-2.0029 3.4433-0.96512 8.8688 3.1172 10.227 2.9483 1.2476 7.3475-1.6816 5.7344-4.9746-1.2091-2.2527-3.9569-0.54904-4.8125 0.24023-2.0189-2.0963 0.5929-5.4378 3.0879-5.5644 4.3-0.72003 8.2789 3.5346 7.6836 7.7734-0.37363 5.4439-6.0718 9.6259-11.385 8.4473-5.9273-0.94444-10.486-6.8797-9.7344-12.857 0.55223-6.7144 6.4947-12.603 13.309-12.693 8.0903-0.44328 15.978 6.1071 16.621 14.27 1.1542 9.2845-6.0526 18.823-15.439 19.852-9.8815 1.4972-20.385-5.4541-22.375-15.354-2.5024-10.521 3.9151-22.484 14.348-25.717 2.6235-0.89903 5.4051-1.3171 8.1777-1.2617zm17.578 15.074c0.3783 0.43275 0.7706 0.85392 1.1836 1.2539 2.2565 2.2962 4.9975 3.9559 7.9648 5-1.3904 0.47389-2.7405 1.0594-4.0137 1.7852-1.0649 0.56942-2.0667 1.2271-3.0098 1.9551 0.12664-3.4475-0.54036-6.8996-2.125-9.9941zm31.457 2.9961c-0.31698 2.2566-0.30456 4.5526 0.006 6.8125-1.9066-1.5571-4.0632-2.7423-6.3613-3.5508 1.3912-0.47401 2.7418-1.059 4.0156-1.7852 0.81957-0.43826 1.592-0.94281 2.3398-1.4766zm-76.301 1.2461c-0.24679 2.2415-0.18716 4.5133 0.17578 6.7422-1.5151-1.365-3.207-2.4801-5.0234-3.334 1.758-0.89075 3.3925-2.0242 4.8477-3.4082zm-29.787 1.293c0.74789 0.53375 1.5203 1.0383 2.3398 1.4766 0.59017 0.33642 1.1981 0.63938 1.8164 0.92188-0.42122 0.20657-0.84258 0.41229-1.25 0.64453-0.95839 0.51249-1.8588 1.1062-2.7188 1.748 0.090888-1.5993 0.035122-3.2053-0.1875-4.791zm91.387 3.6856c0.44456-0.0115 0.89063-0.007 1.3359 0.0137 0.62022 0.0289 1.2398 0.09 1.8574 0.18359 9.3869 1.0281 16.594 10.567 15.439 19.852-0.6429 8.1624-8.5308 14.713-16.621 14.27-6.8139-0.09-12.756-5.979-13.309-12.693-0.75182-5.9777 3.807-11.913 9.7344-12.857 5.313-1.1786 11.011 3.0034 11.385 8.4473 0.59526 4.2389-3.3836 8.4935-7.6836 7.7734-2.495-0.1267-5.1068-3.4682-3.0879-5.5645 0.85559 0.78927 3.6053 2.4929 4.8145 0.24024 1.6131-3.293-2.7881-6.2223-5.7363-4.9746-4.0823 1.3578-5.1201 6.7833-3.1172 10.227 2.8777 5.2886 10.655 5.7416 14.986 2.0449 4.767-3.7931 5.3098-11.157 2.1856-16.146-3.2465-5.5539-10.533-7.7118-16.516-5.8594-6.45 1.7695-10.973 8.0767-11.312 14.646-0.61548 7.74 4.6089 15.249 11.818 17.879 8.5572 3.4018 18.892-0.5758 23.711-8.2344 2.5871-3.8995 3.512-8.5616 3.0703-13.127 1.2134 1.0505 2.5309 1.9889 3.9688 2.7578 1.5243 0.86889 3.1547 1.5473 4.8398 2.0547-8.2734 3.0682-15.002 10.353-16.91 19.02-0.34-0.0888-0.74353-0.0945-1.2188 0.0195-5.6449 2.8992-12.472 3.3499-18.469 1.2949-10.433-3.2329-16.85-15.193-14.348-25.715 0.23819-1.1847 0.60394-2.3252 1.0703-3.416 0.52206-0.83655 0.98234-1.7086 1.3926-2.6074 3.5593-5.6139 10.05-9.3553 16.719-9.5273zm55.762 14.699c-1.1801 2.33-1.8401 4.8597-2.0391 7.4375-0.46437-0.49344-1.1256-0.79339-1.9668-0.69141-1.2177-0.50548-2.4744-0.90815-3.752-1.2305 2.5368-1.0486 4.8833-2.5518 6.8535-4.5566 0.3157-0.30577 0.60879-0.63384 0.9043-0.95898zm-109.73 1.3476c1.3935 1.3102 2.9525 2.4518 4.668 3.3691 1.2488 0.71188 2.5714 1.2882 3.9336 1.7578-2.5494 0.29171-5.0589 0.92799-7.4297 1.9121-0.59316-0.0719-1.0914 0.0622-1.5 0.31641 0.53608-2.4031 0.63316-4.8966 0.32812-7.3555zm29.975 2.377c-0.16131 1.9025-0.1107 3.8217 0.17188 5.709 0.22116 1.7939 0.65544 3.5383 1.2656 5.2148-3.0798-3.2176-6.9357-5.7032-11.156-7.0918 3.4908-0.51207 6.8464-1.7766 9.7188-3.832zm7.2051 20.109c3.5939 3.7558 8.2461 6.511 13.299 7.6934-3.3032 0.12051-6.5885 0.80058-9.6426 2.0684-0.99952-0.12118-1.7387 0.32926-2.2012 0.99414 0.14408-1.8467 0.08665-3.708-0.1875-5.5391-0.22129-1.7949-0.65682-3.5393-1.2676-5.2168zm31.037 6.2207c-0.10362 2.7049 0.23458 5.4237 0.98437 8.0293-3.2776-2.8441-7.2096-4.9321-11.426-5.918 3.3048-0.12002 6.5909-0.79997 9.6465-2.0684 0.28878 0.035 0.54909 0.008 0.79493-0.043zm-76.152 0.26563c-0.52982 2.3748-0.62997 4.8387-0.33789 7.2695-3.0278-2.3335-6.529-4.0449-10.246-4.9023 3.1145-0.17431 6.2019-0.85248 9.084-2.0488 0.59324 0.0719 1.0914-0.0641 1.5-0.31836zm-16.807 9.9082c-0.5874 0.004-1.1748 0.036-1.7598 0.0937a79.357 79.357 0 0 0 3.25 4.3398c6.3222 0.4486 11.732 5.8224 12.541 12.062a79.357 79.357 0 0 0 4.373 3.1992c0.01774-0.19718 0.04252-0.39402 0.05273-0.59179 0.61549-7.74-4.6108-15.249-11.82-17.879-2.1393-0.85046-4.3894-1.2388-6.6367-1.2246zm102.08 10.301c1.0301 0.82427 2.1323 1.5662 3.3125 2.1973 0.88288 0.50326 1.8069 0.93009 2.75 1.3125-1.8317 0.93863-3.5332 2.1363-5.0293 3.6133-0.009-1.1349-0.0858-2.268-0.25391-3.3906-0.15667-1.2708-0.42343-2.5171-0.7793-3.7324zm-75.574 3.3945c2.4427 1.5755 5.186 2.6334 8.0469 3.1582-2.8363 0.99024-5.492 2.4831-7.8555 4.3516 0.26805-2.2038 0.26792-4.439-0.06055-6.6328-0.03628-0.29424-0.08351-0.58535-0.13086-0.87696z" fill-rule="evenodd" fill="#ffff87"/>
</g>
</svg>
