<?xml version="1.0" encoding="UTF-8" standalone="no"?>
<!-- Creator: CorelDRAW -->

<svg
   xmlns:dc="http://purl.org/dc/elements/1.1/"
   xmlns:cc="http://creativecommons.org/ns#"
   xmlns:rdf="http://www.w3.org/1999/02/22-rdf-syntax-ns#"
   xmlns:svg="http://www.w3.org/2000/svg"
   xmlns="http://www.w3.org/2000/svg"
   xmlns:sodipodi="http://sodipodi.sourceforge.net/DTD/sodipodi-0.dtd"
   xmlns:inkscape="http://www.inkscape.org/namespaces/inkscape"
   xml:space="preserve"
   width="188.18828mm"
   height="73.899704mm"
   style="clip-rule:evenodd;fill-rule:evenodd;image-rendering:optimizeQuality;shape-rendering:geometricPrecision;text-rendering:geometricPrecision"
   viewBox="0 0 188.18828 73.899704"
   version="1.1"
   id="svg119"
   sodipodi:docname="car-18.svg"
   inkscape:version="0.92.3 (2405546, 2018-03-11)"><metadata
   id="metadata123"><rdf:RDF><cc:Work
       rdf:about=""><dc:format>image/svg+xml</dc:format><dc:type
         rdf:resource="http://purl.org/dc/dcmitype/StillImage" /><dc:title></dc:title></cc:Work></rdf:RDF></metadata><sodipodi:namedview
   pagecolor="#ffffff"
   bordercolor="#666666"
   borderopacity="1"
   objecttolerance="10"
   gridtolerance="10"
   guidetolerance="10"
   inkscape:pageopacity="0"
   inkscape:pageshadow="2"
   inkscape:window-width="1920"
   inkscape:window-height="1017"
   id="namedview121"
   showgrid="false"
   fit-margin-top="0"
   fit-margin-left="0"
   fit-margin-right="0"
   fit-margin-bottom="0"
   showborder="false"
   inkscape:zoom="2.0133206"
   inkscape:cx="355.63139"
   inkscape:cy="139.65298"
   inkscape:window-x="-4"
   inkscape:window-y="9"
   inkscape:window-maximized="1"
   inkscape:current-layer="svg119"
   showguides="true"
   inkscape:guide-bbox="true" />
 <defs
   id="defs4"><style
     type="text/css"
     id="style2">
   <![CDATA[
    .str1 {stroke:#1F1A17;stroke-width:0.0762}
    .str0 {stroke:#AAA9A9;stroke-width:2.8222}
    .fil5 {fill:#0093DD}
    .fil2 {fill:#28166F}
    .fil4 {fill:#383431}
    .fil1 {fill:#AAA9A9}
    .fil7 {fill:#DA251D}
    .fil11 {fill:#DEDEDD}
    .fil0 {fill:white}
    .fil9 {fill:#191919}
    .fil6 {fill:#663300}
    .fil13 {fill:#669966}
    .fil16 {fill:#996699}
    .fil10 {fill:#CCCCCC}
    .fil12 {fill:#CCCCFF}
    .fil14 {fill:red}
    .fil15 {fill:#FF6600}
    .fil3 {fill:#FFCCCC}
    .fil8 {fill:#FFFF66}
   ]]>
  </style></defs>
 
<g
   id="g6343"
   transform="translate(24.643774,-9.1447128)"><path
     inkscape:connector-curvature="0"
     id="path5813"
     d="m 30.678127,10.555928 v 4.73408 4.73408 c 1.434433,0 2.717593,-0.64093 3.585826,-1.649 v 1.8278 c -17.384723,3.08588 -19.265929,14.57228 -21.785749,20.65093 -5.417505,1.08447 -9.5198775,2.70017 -11.65768697,6.93033 a 4.3868374,4.3868374 0 0 0 -1.18597361,0.25735 l 0.58911066,-2.30787 c 0.53960183,-2.11372 0.30818402,-4.18316 -3.30315618,-5.44308 -4.3267312,-1.5095 -12.3428839,-2.3252 -6.3432822,2.33681 7.2498294,5.63349 1.4377406,23.19429 -13.8100087,38.15478 0,0 9.050869,0.85112 10.919229,0.85112 1.868358,0 3.8074657,-1.70495 4.3480545,-3.82252 l 5.80998,-22.75882 a 4.3868374,4.3868374 0 0 0 1.32860256,1.02526 c -0.002394,0.2558 -0.004829,0.51131 -0.00155,0.77618 0.0888788,7.18221 0.30622874,11.26586 7.91786254,13.31495 a 13.6644,10.789552 58.225142 0 0 1.569929,3.29075 13.6644,10.789552 58.225142 0 0 11.6049764,7.23418 v 0.10854 h 91.558749 l -0.0222,-0.10904 a 13.6644,10.789552 58.225142 0 0 4.70721,-1.29863 13.6644,10.789552 58.225142 0 0 3.90829,-12.84832 c 4.97713,-1.69687 8.29105,-3.90585 9.15086,-6.78201 l 4.52789,1.9451 a 16.441219,12.982157 58.225139 0 0 2.97294,10.72698 16.441219,12.982157 58.225139 0 0 19.69389,7.14119 16.441219,12.982157 58.225139 0 0 2.37918,-20.81373 16.441219,12.982157 58.225139 0 0 -19.6944,-7.14065 16.441219,12.982157 58.225139 0 0 -4.71496,6.34122 l -5.02398,-2.15853 c -0.41887,-4.9102 -2.47345,-7.49208 -7.35356,-8.85217 v -1.50998 c 0.52813,0.39716 1.18248,0.63562 1.89394,0.63562 v -3.15847 -3.15846 c -0.96182,0 -1.82205,0.43194 -2.4014,1.11053 -1.58506,-2.52327 -6.35568,-1.89938 -6.35568,1.87843 v 3.11971 c -3.47545,-0.28662 -7.72847,-0.38781 -12.86433,-0.4284 1.54891,-1.85072 2.46341,-4.11835 2.46341,-6.57066 0,-3.99191 -2.41868,-6.68231 -6.065262,-8.10183 1.085662,-0.80238 1.805302,-1.90441 2.009692,-3.3631 0.102,0.0231 0.21227,0.0491 0.31161,0.0713 0.61246,-3.75412 -0.12235,-7.10438 -1.971453,-9.29194 a 2.0533898,2.2637579 0 0 0 1.200963,-2.05673 2.0533898,2.2637579 0 0 0 -2.053107,-2.26394 2.0533898,2.2637579 0 0 0 -2.052071,2.23552 c -0.4174,-0.16322 -0.857676,-0.29305 -1.321366,-0.38499 -3.418899,-0.67792 -8.63577,1.51901 -10.629326,4.77129 0.07863,0.204 0.20149,0.40656 0.358118,0.60771 -0.909556,0.84704 -1.608478,1.86206 -2.027266,2.98535 -2.181169,0.68567 -4.362617,1.50568 -6.543787,2.8422 0.886198,0.68567 3.804058,1.40854 6.551538,1.87069 0.377388,0.84728 0.978354,1.53184 1.753381,2.07274 -1.632122,0.67146 -3.002133,1.60776 -4.003373,2.8081 a 3.5082636,3.3477364 0 0 0 -0.962215,-0.13126 3.5082636,3.3477364 0 0 0 -3.508313,3.3476 3.5082636,3.3477364 0 0 0 2.742985,3.2644 c 0.253491,1.91971 1.068331,3.69235 2.300635,5.19607 -2.634691,-0.0239 -5.401599,-0.0588 -8.310604,-0.10956 -8.561247,-0.18784 -2.591173,-20.36446 -12.693797,-24.89615 v -4.05247 c 0,-4.5296 -6.863149,-4.5299 -6.863149,0 v 3.14761 c -3.008979,-0.0118 -6.09088,-0.0176 -9.307957,-0.0176 -0.994923,0 -1.951442,0.0228 -2.878894,0.062 v -3.9858 c 0,-3.62288 -4.387586,-4.34501 -6.145363,-2.17248 -0.746684,-1.63316 -2.39086,-2.77037 -4.303612,-2.77037 z m 68.018069,59.9519 a 13.6644,10.789552 58.225142 0 0 1.443844,2.95123 13.6644,10.789552 58.225142 0 0 2.36161,2.99828 H 88.897828 a 13.6644,10.789552 58.225142 0 0 1.552876,-5.30459 c 2.821221,-0.17887 5.583479,-0.39004 8.245492,-0.64492 z m -69.290861,1.3782 c 0.251476,5.1e-4 0.487926,0.003 0.743625,0.003 2.463043,0 5.253958,0.0173 8.171077,0.0382 a 13.6644,10.789552 58.225142 0 0 0.833024,1.53168 13.6644,10.789552 58.225142 0 0 2.361613,2.99828 H 27.910336 a 13.6644,10.789552 58.225142 0 0 1.494999,-4.57131 z m 39.411031,0.047 a 13.6644,10.789552 58.225142 0 0 0.829924,1.52653 13.6644,10.789552 58.225142 0 0 2.362129,2.99775 H 58.404081 a 13.6644,10.789552 58.225142 0 0 1.484149,-4.44366 c 2.939198,-0.0102 5.923873,-0.036 8.928136,-0.0806 z"
     style="opacity:1;fill:#ffffff;fill-opacity:1;stroke:#aaa9a9;stroke-width:2.82231045;stroke-linecap:round;stroke-linejoin:round;stroke-miterlimit:4;stroke-dasharray:none;stroke-opacity:1;paint-order:normal" /><g
     transform="translate(-316.67194,-10.056391)"
     id="g5735"><g
       id="g5641"
       transform="matrix(0.68321131,0,0,0.64713344,128.77552,21.724581)"
       style="stroke-width:0.11778222;stroke-miterlimit:4;stroke-dasharray:none"><path
         sodipodi:nodetypes="cccc"
         inkscape:connector-curvature="0"
         id="rect5581"
         d="m 399.34215,18.209945 c 0.009,3.147732 0.19291,6.236953 1.6359,8.906585 -4.60117,-0.406157 -12.42924,-2.041878 -14.26871,-3.544457 4.21094,-2.724117 8.42187,-4.060656 12.63281,-5.362128 z"
         style="opacity:1;fill:#ff9955;fill-opacity:1;stroke:#000000;stroke-width:0.11778222;stroke-linecap:round;stroke-linejoin:round;stroke-miterlimit:4;stroke-dasharray:none;stroke-opacity:1;paint-order:normal" /><path
         sodipodi:nodetypes="sssss"
         inkscape:connector-curvature="0"
         id="path5537"
         d="m 428.83888,42.036189 c 0,9.627517 -8.61624,17.432161 -19.24491,17.432162 -10.62867,5e-6 -19.24492,-7.804642 -19.24492,-17.432162 0,-9.62752 8.61625,-14.364437 19.24492,-14.364433 10.62867,1e-6 19.24491,4.736916 19.24491,14.364433 z"
         style="opacity:1;fill:#ffffff;fill-opacity:1;stroke:#000000;stroke-width:0.11778222;stroke-linecap:round;stroke-linejoin:round;stroke-miterlimit:4;stroke-dasharray:none;stroke-opacity:1;paint-order:normal" /><path
         sodipodi:nodetypes="sssss"
         inkscape:connector-curvature="0"
         id="ellipse5548"
         d="m 422.9931,22.957586 c 0,6.842598 -6.12385,9.321891 -13.678,9.321893 -7.55416,3e-6 -13.67801,-2.479292 -13.67801,-9.321893 0,-6.842601 6.12385,-12.389624 13.67801,-12.389621 7.55415,2e-6 13.678,5.547024 13.678,12.389621 z"
         style="opacity:1;fill:#ffffff;fill-opacity:1;stroke:#000000;stroke-width:0.11778222;stroke-linecap:round;stroke-linejoin:round;stroke-miterlimit:4;stroke-dasharray:none;stroke-opacity:1;paint-order:normal" /><path
         style="fill:#afc6e9;stroke:#1f1a17;stroke-width:0.11778222;stroke-miterlimit:4;stroke-dasharray:none"
         d="m 423.35855,24.430163 c -8.25328,-1.948915 -22.93691,-6.169687 -24.62836,-10.80293 2.91792,-5.0256654 10.55364,-8.4204974 15.5578,-7.3729344 7.02124,1.469804 10.47995,9.0552924 9.07056,18.1758644 z"
         id="path5629"
         inkscape:connector-curvature="0"
         sodipodi:nodetypes="cccc" /><ellipse
         ry="3.4981315"
         rx="3.0054972"
         style="opacity:1;fill:#afc6e9;fill-opacity:1;stroke:#000000;stroke-width:0.11778222;stroke-linecap:round;stroke-linejoin:round;stroke-miterlimit:4;stroke-dasharray:none;stroke-opacity:1;paint-order:normal"
         id="circle5631"
         cx="419.22552"
         cy="6.893261" /><ellipse
         cy="38.975143"
         cx="391.59695"
         id="ellipse5633"
         style="opacity:1;fill:#ffffff;fill-opacity:1;stroke:#000000;stroke-width:0.11778222;stroke-linecap:round;stroke-linejoin:round;stroke-miterlimit:4;stroke-dasharray:none;stroke-opacity:1;paint-order:normal"
         rx="5.1349611"
         ry="5.1731777" /></g><path
       style="fill:#da251d;fill-opacity:1;stroke:#1f1a17;stroke-width:0.07831667;stroke-miterlimit:4;stroke-dasharray:none"
       inkscape:connector-curvature="0"
       d="m 439.02691,52.80737 v 5.9833 h -6.8633 v -5.9833 c 0,-4.5299 6.8633,-4.5296 6.8633,0 z"
       class="fil5 str1"
       id="path5439" /><path
       id="path5437"
       class="fil5 str1"
       d="m 357.79995,25.555291 v 5.9833 h -6.8633 v -5.9833 c 0,-4.5299 6.8633,-4.5296 6.8633,0 z"
       inkscape:connector-curvature="0"
       style="fill:#da251d;fill-opacity:1;stroke:#1f1a17;stroke-width:0.07831667;stroke-miterlimit:4;stroke-dasharray:none" /><ellipse
       ry="16.441219"
       rx="12.982157"
       id="ellipse5355"
       class="fil9 str1"
       transform="matrix(0.85012645,-0.52657859,0.52658019,0.85012546,0,0)"
       cx="355.27994"
       cy="309.05887"
       style="fill:#4d4d4d;fill-opacity:1;stroke:#1f1a17;stroke-width:0.07831667;stroke-miterlimit:4;stroke-dasharray:none" /><ellipse
       style="fill:#da251d;fill-opacity:1;stroke:#1f1a17;stroke-width:0.07831667;stroke-miterlimit:4;stroke-dasharray:none"
       cy="309.05887"
       cx="355.27994"
       transform="matrix(0.85012645,-0.52657859,0.52658019,0.85012546,0,0)"
       class="fil9 str1"
       id="ellipse5422"
       rx="9.3942575"
       ry="11.897334" /><ellipse
       style="fill:#28166f;stroke:#1f1a17;stroke-width:0.07831667;stroke-miterlimit:4;stroke-dasharray:none"
       ry="11.633"
       rx="7.17377"
       cy="61.466038"
       cx="346.40848"
       class="fil2 str1"
       id="ellipse1237" /><ellipse
       style="fill:#ffcccc;stroke:#1f1a17;stroke-width:0.07831667;stroke-miterlimit:4;stroke-dasharray:none"
       cy="-19.455963"
       cx="349.70901"
       ry="5.9320569"
       rx="5.3151689"
       transform="rotate(10.196104)"
       class="fil3 str1"
       id="ellipse1239" /><path
       style="fill:#ffcc00;stroke:#1f1a17;stroke-width:0.07831667;stroke-miterlimit:4;stroke-dasharray:none"
       inkscape:connector-curvature="0"
       d="m 376.84992,26.34904 v 5.9833 h -6.8633 v -5.9833 c 0,-4.5299 6.8633,-4.5296 6.8633,0 z"
       class="fil5 str1"
       id="path1245" /><path
       style="fill:#663300;stroke:#1f1a17;stroke-width:0.07831667;stroke-miterlimit:4;stroke-dasharray:none"
       inkscape:connector-curvature="0"
       d="m 334.35404,45.69804 h 10e-5 c 0.3512,-0.1873 0.7917,-0.0533 0.979,0.2979 l 4.8439,9.0809 c 0.1873,0.3512 0.0533,0.7917 -0.2979,0.979 l -1e-4,10e-5 c -0.3511,0.1873 -0.7917,0.0532 -0.979,-0.2979 l -2.0813,-3.902 -5.1553,2.7499 -0.6812,-1.2769 5.1553,-2.75 -2.0814,-3.9019 c -0.1873,-0.3512 -0.0532,-0.7917 0.2979,-0.9791 z"
       class="fil6 str1"
       id="path1247" /><path
       style="fill:#da251d;stroke:#1f1a17;stroke-width:0.07831667;stroke-miterlimit:4;stroke-dasharray:none"
       inkscape:connector-curvature="0"
       d="m 446.46414,68.28604 c 0,16.1032 -69.2728,13.6594 -99.6423,13.6594 -30.3695,0 -30.8358,-3.569 -30.9777,-15.0358 -0.1419,-11.4667 5.0589,-14.3483 13.307,-15.9994 2.9282,-7.0638 4.9924,-21.4313 31.5275,-21.4313 4.0546,0 7.9419,0.006 11.667,0.0265 16.2917,0.1719 7.5859,25.5813 17.1982,25.7922 46.2752,0.8083 57.0717,-2.5162 56.9203,12.9884 z m -78.6796,-35.8166 c 5.4581,0 8.3107,0.8472 8.3107,9.0921 0,8.2449 -0.8256,10.6548 -8.1687,10.6548 -7.343,0 -8.4529,-3.6186 -8.4529,-10.6548 0,-7.0362 2.8527,-9.0921 8.3109,-9.0921 z m -11.042,13.4922 c 0,4.9979 -5.1267,6.8587 -11.3879,6.8587 -9.5476,0 -14.1812,-1.0893 -11.8062,-5.9634 2.9875,-6.1311 5.313,-14.2531 20.2653,-14.2531 4.7034,0 2.9288,8.3599 2.9288,13.3578 z"
       class="fil7 str1"
       id="path1249" /><path
       style="fill:#ffff66;stroke:#1f1a17;stroke-width:0.07831667;stroke-miterlimit:4;stroke-dasharray:none"
       inkscape:connector-curvature="0"
       d="m 347.35104,25.346171 v 4.734 c 2.614,0 4.734,-2.1198 4.734,-4.734 0,-2.6141 -2.12,-4.7339 -4.734,-4.7339 z"
       class="fil8 str1"
       id="path1251" /><path
       style="fill:#ffff66;stroke:#1f1a17;stroke-width:0.07831667;stroke-miterlimit:4;stroke-dasharray:none"
       inkscape:connector-curvature="0"
       d="m 440.92085,52.97687 v 3.158268 c -1.74381,0 -3.15827,-1.414107 -3.15827,-3.158268 0,-1.743982 1.41446,-3.158445 3.15827,-3.158445 z"
       class="fil8 str1"
       id="path1253" /><path
       style="fill:#ffcc00;fill-opacity:1;stroke:#1f1a17;stroke-width:0.07831667;stroke-miterlimit:4;stroke-dasharray:none"
       d="m 328.59267,56.219309 h 5.65551 l 3.96875,4.90808 h -5.65551 z"
       id="rect1255"
       inkscape:connector-curvature="0"
       sodipodi:nodetypes="ccccc" /><g
       id="g5245"
       transform="translate(26.458331,-26.458331)"
       style="stroke-width:0.07831667;stroke-miterlimit:4;stroke-dasharray:none"><path
         sodipodi:nodetypes="ccccccccccc"
         id="rect1371"
         d="m 305.35758,91.279698 0.85474,4.344438 h 90.46114 l 2.682,8.673894 -2.682,-13.018332 z m 5.12114,26.036652 h 91.55875 l -0.89504,-4.34444 h -90.66371 z"
         style="opacity:1;fill:#191919;fill-opacity:1;stroke:#000000;stroke-width:0.07831667;stroke-linecap:round;stroke-linejoin:round;stroke-miterlimit:4;stroke-dasharray:none;stroke-opacity:1;paint-order:normal"
         inkscape:connector-curvature="0" /><g
         id="g1518"
         style="stroke-width:0.07831667;stroke-miterlimit:4;stroke-dasharray:none"><ellipse
           style="fill:#191919;stroke:#1f1a17;stroke-width:0.07831667;stroke-miterlimit:4;stroke-dasharray:none"
           cy="250.87219"
           cx="206.95961"
           transform="matrix(0.85012645,-0.52657859,0.52658018,0.85012547,0,0)"
           class="fil9 str1"
           id="circle1257"
           rx="10.789552"
           ry="13.6644" /><circle
           style="fill:#cccccc;stroke:#1f1a17;stroke-width:0.07831667;stroke-miterlimit:4;stroke-dasharray:none"
           cy="250.87283"
           cx="206.95961"
           r="3.6285112"
           transform="rotate(-31.774721)"
           class="fil10 str1"
           id="circle1259" /><circle
           style="fill:#191919;stroke:#1f1a17;stroke-width:0.07831667;stroke-miterlimit:4;stroke-dasharray:none"
           cy="250.87292"
           cx="206.95946"
           r="1.1579367"
           transform="rotate(-31.774752)"
           class="fil9 str1"
           id="circle1261" /></g><g
         id="g1523"
         style="stroke-width:0.07831667;stroke-miterlimit:4;stroke-dasharray:none"><ellipse
           style="fill:#191919;stroke:#1f1a17;stroke-width:0.07831667;stroke-miterlimit:4;stroke-dasharray:none"
           cy="299.04398"
           cx="284.72964"
           transform="matrix(0.85012645,-0.52657859,0.52658018,0.85012547,0,0)"
           class="fil9 str1"
           id="circle1269"
           rx="10.789552"
           ry="13.6644" /><circle
           style="fill:#cccccc;stroke:#1f1a17;stroke-width:0.07831667;stroke-miterlimit:4;stroke-dasharray:none"
           cy="299.04471"
           cx="284.72946"
           r="3.6285112"
           transform="rotate(-31.774721)"
           class="fil10 str1"
           id="circle1271" /><circle
           style="fill:#191919;stroke:#1f1a17;stroke-width:0.07831667;stroke-miterlimit:4;stroke-dasharray:none"
           cy="299.04486"
           cx="284.72928"
           r="1.1579367"
           transform="rotate(-31.774752)"
           class="fil9 str1"
           id="circle1273" /></g><g
         transform="translate(4.0352511)"
         id="g1513"
         style="stroke-width:0.07831667;stroke-miterlimit:4;stroke-dasharray:none"><ellipse
           ry="13.6644"
           rx="10.789552"
           id="ellipse1493"
           class="fil9 str1"
           transform="matrix(0.85012645,-0.52657859,0.52658018,0.85012547,0,0)"
           cx="229.45244"
           cy="264.80463"
           style="fill:#191919;stroke:#1f1a17;stroke-width:0.07831667;stroke-miterlimit:4;stroke-dasharray:none" /><circle
           id="circle1495"
           class="fil10 str1"
           transform="rotate(-31.774721)"
           r="3.6285112"
           cx="229.45244"
           cy="264.80533"
           style="fill:#cccccc;stroke:#1f1a17;stroke-width:0.07831667;stroke-miterlimit:4;stroke-dasharray:none" /><circle
           id="circle1497"
           class="fil9 str1"
           transform="rotate(-31.774752)"
           r="1.1579367"
           cx="229.45229"
           cy="264.80542"
           style="fill:#191919;stroke:#1f1a17;stroke-width:0.07831667;stroke-miterlimit:4;stroke-dasharray:none" /></g><g
         transform="translate(2.7788356)"
         id="g1508"
         style="stroke-width:0.07831667;stroke-miterlimit:4;stroke-dasharray:none"><ellipse
           style="fill:#191919;stroke:#1f1a17;stroke-width:0.07831667;stroke-miterlimit:4;stroke-dasharray:none"
           cy="281.52362"
           cx="256.44385"
           transform="matrix(0.85012645,-0.52657859,0.52658018,0.85012547,0,0)"
           class="fil9 str1"
           id="ellipse1499"
           rx="10.789552"
           ry="13.6644" /><circle
           style="fill:#cccccc;stroke:#1f1a17;stroke-width:0.07831667;stroke-miterlimit:4;stroke-dasharray:none"
           cy="281.52432"
           cx="256.44385"
           r="3.6285112"
           transform="rotate(-31.774721)"
           class="fil10 str1"
           id="circle1501" /><circle
           style="fill:#191919;stroke:#1f1a17;stroke-width:0.07831667;stroke-miterlimit:4;stroke-dasharray:none"
           cy="281.52441"
           cx="256.4437"
           r="1.1579367"
           transform="rotate(-31.774752)"
           class="fil9 str1"
           id="circle1503" /></g></g><path
       sodipodi:nodetypes="ccccc"
       inkscape:connector-curvature="0"
       id="path5248"
       d="m 336.53019,56.219309 h 5.65551 l 3.96875,4.90808 h -5.65551 z"
       style="fill:#ffcc00;fill-opacity:1;stroke:#1f1a17;stroke-width:0.07831667;stroke-miterlimit:4;stroke-dasharray:none" /><path
       style="fill:#ffcc00;fill-opacity:1;stroke:#1f1a17;stroke-width:0.07831667;stroke-miterlimit:4;stroke-dasharray:none"
       d="m 344.46764,56.219309 h 5.65551 l 3.96875,4.90808 h -5.65551 z"
       id="path5250"
       inkscape:connector-curvature="0"
       sodipodi:nodetypes="ccccc" /><path
       sodipodi:nodetypes="ccccc"
       inkscape:connector-curvature="0"
       id="path5252"
       d="m 352.40515,56.219309 h 5.65551 l 3.96875,4.90808 h -5.65551 z"
       style="fill:#ffcc00;fill-opacity:1;stroke:#1f1a17;stroke-width:0.07831667;stroke-miterlimit:4;stroke-dasharray:none" /><path
       style="fill:#ffcc00;fill-opacity:1;stroke:#1f1a17;stroke-width:0.07831667;stroke-miterlimit:4;stroke-dasharray:none"
       d="m 376.21761,56.219309 h 5.65551 l 3.96875,4.90808 h -5.65551 z"
       id="path5254"
       inkscape:connector-curvature="0"
       sodipodi:nodetypes="ccccc" /><path
       sodipodi:nodetypes="ccccc"
       inkscape:connector-curvature="0"
       id="path5256"
       d="m 368.28012,56.219309 h 5.65551 l 3.96875,4.90808 h -5.65551 z"
       style="fill:#ffcc00;fill-opacity:1;stroke:#1f1a17;stroke-width:0.07831667;stroke-miterlimit:4;stroke-dasharray:none" /><path
       sodipodi:nodetypes="ccccc"
       inkscape:connector-curvature="0"
       id="path5258"
       d="m 360.34266,56.219309 h 5.65551 l 3.96875,4.90808 h -5.65551 z"
       style="fill:#ffcc00;fill-opacity:1;stroke:#1f1a17;stroke-width:0.07831667;stroke-miterlimit:4;stroke-dasharray:none" /><path
       style="opacity:1;fill:#4d4d4d;fill-opacity:1;stroke:#000000;stroke-width:0.07831667;stroke-linecap:round;stroke-linejoin:round;stroke-miterlimit:4;stroke-dasharray:none;stroke-opacity:1;paint-order:normal"
       inkscape:transform-center-x="1.0880106"
       inkscape:transform-center-y="-4.3469489"
       d="m 313.59313,50.346921 c 3.61134,1.259916 3.84297,3.329204 3.30337,5.442916 l -8.18903,32.077483 c -0.54059,2.117564 -2.47993,3.822317 -4.34829,3.822317 -1.86836,0 -10.91942,-0.851218 -10.91942,-0.851218 15.24775,-14.960479 21.06022,-32.521237 13.81039,-38.154732 -5.9996,-4.662002 2.01625,-3.846265 6.34298,-2.336766 z"
       id="rect5260"
       inkscape:connector-curvature="0"
       sodipodi:nodetypes="sssssss" /><circle
       r="4.3868375"
       cy="62.215816"
       cx="317.80838"
       id="circle5310"
       style="opacity:1;fill:#aaa9a9;fill-opacity:1;stroke:#000000;stroke-width:0.07831667;stroke-linecap:round;stroke-linejoin:round;stroke-miterlimit:4;stroke-dasharray:none;stroke-opacity:1;paint-order:normal" /><rect
       style="opacity:1;fill:#da251d;fill-opacity:1;stroke:#000000;stroke-width:0.07831667;stroke-linecap:round;stroke-linejoin:round;stroke-miterlimit:4;stroke-dasharray:none;stroke-opacity:1;paint-order:normal"
       id="rect5435"
       width="23.025805"
       height="3.6928177"
       x="432.33701"
       y="-115.6853"
       transform="rotate(23.248991)" /><circle
       id="circle5357"
       class="fil10 str1"
       transform="rotate(-31.774721)"
       r="4.3658814"
       cx="355.27975"
       cy="309.05981"
       style="fill:#cccccc;stroke:#1f1a17;stroke-width:0.07831667;stroke-miterlimit:4;stroke-dasharray:none" /><circle
       id="circle5359"
       class="fil9 str1"
       transform="rotate(-31.774753)"
       r="1.3932475"
       cx="355.27954"
       cy="309.06"
       style="fill:#191919;stroke:#1f1a17;stroke-width:0.07831667;stroke-miterlimit:4;stroke-dasharray:none" /><path
       style="fill:#afc6e9;stroke:#1f1a17;stroke-width:0.07831667;stroke-miterlimit:4;stroke-dasharray:none"
       d="m 353.74985,43.856663 c -3.97276,-0.806008 -10.25336,-3.190551 -11.06755,-5.106709 1.40456,-2.078451 3.76764,-3.256924 6.17642,-2.823686 3.37971,0.607863 5.56955,4.158424 4.89113,7.930395 z"
       id="ellipse5445"
       inkscape:connector-curvature="0"
       sodipodi:nodetypes="cccc" /><circle
       r="3.1438053"
       cy="43.332062"
       cx="349.04129"
       id="circle5468"
       style="opacity:1;fill:#ffffff;fill-opacity:1;stroke:#000000;stroke-width:0.07831667;stroke-linecap:round;stroke-linejoin:round;stroke-miterlimit:4;stroke-dasharray:none;stroke-opacity:1;paint-order:normal" /><circle
       style="opacity:1;fill:#afc6e9;fill-opacity:1;stroke:#000000;stroke-width:0.07831667;stroke-linecap:round;stroke-linejoin:round;stroke-miterlimit:4;stroke-dasharray:none;stroke-opacity:1;paint-order:normal"
       id="path5457"
       cx="351.76041"
       cy="36.603973"
       r="1.446713" /><rect
       style="opacity:1;fill:#afc6e9;fill-opacity:1;stroke:#000000;stroke-width:0.07831667;stroke-linecap:round;stroke-linejoin:round;stroke-miterlimit:4;stroke-dasharray:none;stroke-opacity:1;paint-order:normal"
       id="rect5488"
       width="9.7917042"
       height="3.7608275"
       x="345.55734"
       y="4.4442792"
       ry="1.8804138"
       transform="rotate(7.0591787)" /></g></g></svg>